<svg width="253" height="46" viewBox="0 0 253 46" fill="none" xmlns="http://www.w3.org/2000/svg">
<path d="M243.73 0.749996V40.05C243.73 41.1 244.729 41.875 246.729 42.375C248.729 42.825 250.804 43.05 252.954 43.05V44.625H227.604V43.05C229.754 43.05 231.829 42.825 233.829 42.375C235.829 41.875 236.829 41.1 236.829 40.05V11.325C234.729 12.575 232.079 14.4 228.879 16.8L228.354 15.525L241.704 0.749996H243.73Z" fill="black"/>
<path d="M185.812 44.625C185.812 44.075 186.537 43.025 187.987 41.475C189.487 39.875 191.287 38.025 193.387 35.925C195.487 33.825 197.562 31.575 199.612 29.175C201.712 26.775 203.487 24.175 204.937 21.375C206.437 18.575 207.187 15.975 207.187 13.575C207.187 11.275 206.537 9.2 205.237 7.35C203.987 5.45 202.162 4.5 199.762 4.5C197.712 4.5 195.912 4.75 194.362 5.25C192.812 5.75 191.637 6.35 190.837 7.05C190.087 7.75 189.462 8.45 188.962 9.15C188.462 9.85 188.062 10.45 187.762 10.95C187.512 11.45 187.312 11.7 187.162 11.7C186.762 11.7 186.562 11.45 186.562 10.95C186.562 10.4 186.812 9.575 187.312 8.475C187.812 7.375 188.562 6.175 189.562 4.875C190.562 3.525 192.037 2.375 193.987 1.425C195.937 0.475 198.137 0 200.587 0C205.237 0 208.712 1.225 211.012 3.675C213.362 6.075 214.537 9.05 214.537 12.6C214.537 14.65 213.512 17.2 211.462 20.25C209.412 23.25 207.137 26 204.637 28.5C202.187 31 199.937 33.325 197.887 35.475C195.837 37.625 194.812 38.925 194.812 39.375H210.637C212.687 38.475 214.162 36.9 215.062 34.65H216.562L213.712 44.625H185.812Z" fill="black"/>
<path d="M143.805 0.749996H181.455V8.025H179.88C179.88 5.325 179.38 3.75 178.38 3.3H166.08V41.55C166.53 42.55 168.105 43.05 170.805 43.05V44.625H154.455V43.05C157.155 43.05 158.73 42.55 159.18 41.55V3.3H146.88C145.88 3.75 145.38 5.325 145.38 8.025H143.805V0.749996Z" fill="black"/>
<path d="M130.155 44.625V43.05C132.455 43.05 133.905 42.75 134.505 42.15L130.305 30.675H115.905L112.005 41.7C112.505 42.6 114.055 43.05 116.655 43.05V44.625H104.355V43.05C107.155 43.05 108.73 42.525 109.08 41.475L123.63 0.749996H127.23L141.78 41.475C142.13 42.525 143.73 43.05 146.58 43.05V44.625H130.155ZM123.03 10.725L116.805 28.2H129.405L123.03 10.725Z" fill="black"/>
<path d="M102.796 11.625V13.2C100.196 13.2 98.5207 13.675 97.7707 14.625L90.4207 25.575L100.396 41.625C100.946 42.575 102.496 43.05 105.046 43.05V44.625H90.4957V43.05C91.6957 43.05 92.6457 42.975 93.3457 42.825L86.3707 31.575L79.0207 42.525C79.6707 42.875 80.9207 43.05 82.7707 43.05V44.625H70.4707V43.05C73.1207 43.05 74.8207 42.525 75.5707 41.475L84.3457 28.425L75.6457 14.4C75.1457 13.6 73.6707 13.2 71.2207 13.2V11.625H85.7707V13.2C84.5707 13.2 83.5957 13.275 82.8457 13.425L88.3957 22.425L94.2457 13.725C93.5957 13.375 92.3457 13.2 90.4957 13.2V11.625H102.796Z" fill="black"/>
<path d="M44.0338 26.55C44.0838 30.75 45.2838 34.475 47.6338 37.725C50.0338 40.925 52.7088 42.525 55.6588 42.525C60.0088 42.525 63.5088 40.875 66.1588 37.575L67.9588 38.475C66.5088 40.875 64.6088 42.625 62.2588 43.725C59.9588 44.825 56.9088 45.375 53.1088 45.375C51.2088 45.375 49.3838 45.1 47.6338 44.55C45.8838 43.95 44.1588 43 42.4588 41.7C40.7588 40.35 39.4088 38.375 38.4088 35.775C37.4088 33.175 36.9088 30.075 36.9088 26.475C36.9088 22.075 38.2588 18.375 40.9588 15.375C43.7088 12.375 47.5088 10.875 52.3588 10.875C57.6588 10.875 61.6088 12.375 64.2088 15.375C66.8088 18.325 68.1088 22.05 68.1088 26.55H44.0338ZM44.1088 24.225H60.7588C60.4588 20.625 59.6838 17.875 58.4338 15.975C57.2338 14.075 55.1088 13.125 52.0588 13.125C50.3088 13.125 48.6088 14.15 46.9588 16.2C45.3588 18.25 44.4088 20.925 44.1088 24.225Z" fill="black"/>
<path d="M0 44.625V43.05C2.7 43.05 4.275 42.55 4.725 41.55V3.825C4.275 2.825 2.7 2.325 0 2.325V0.749996H16.35V2.325C13.65 2.325 12.075 2.825 11.625 3.825V42.075H28.725C29.975 41.525 31.1 39.95 32.1 37.35H33.6L31.8 44.625H0Z" fill="black"/>
</svg>
