<svg width="260" height="60" viewBox="0 0 260 60" fill="none" xmlns="http://www.w3.org/2000/svg">
<path d="M3.15 52V50.425C5.85 50.425 7.425 49.925 7.875 48.925V11.2C7.425 10.2 5.85 9.7 3.15 9.7V8.125H19.5V9.7C16.8 9.7 15.225 10.2 14.775 11.2V49.45H31.875C33.125 48.9 34.25 47.325 35.25 44.725H36.75L34.95 52H3.15ZM47.1838 33.925C47.2338 38.125 48.4338 41.85 50.7838 45.1C53.1838 48.3 55.8588 49.9 58.8088 49.9C63.1588 49.9 66.6588 48.25 69.3088 44.95L71.1088 45.85C69.6588 48.25 67.7588 50 65.4088 51.1C63.1088 52.2 60.0588 52.75 56.2588 52.75C54.3588 52.75 52.5338 52.475 50.7838 51.925C49.0338 51.325 47.3088 50.375 45.6088 49.075C43.9088 47.725 42.5588 45.75 41.5588 43.15C40.5588 40.55 40.0588 37.45 40.0588 33.85C40.0588 29.45 41.4088 25.75 44.1088 22.75C46.8588 19.75 50.6588 18.25 55.5088 18.25C60.8088 18.25 64.7588 19.75 67.3588 22.75C69.9588 25.7 71.2588 29.425 71.2588 33.925H47.1838ZM47.2588 31.6H63.9088C63.6088 28 62.8338 25.25 61.5838 23.35C60.3838 21.45 58.2588 20.5 55.2088 20.5C53.4588 20.5 51.7588 21.525 50.1088 23.575C48.5088 25.625 47.5588 28.3 47.2588 31.6ZM105.946 19V20.575C103.346 20.575 101.671 21.05 100.921 22L93.5707 32.95L103.546 49C104.096 49.95 105.646 50.425 108.196 50.425V52H93.6457V50.425C94.8457 50.425 95.7957 50.35 96.4957 50.2L89.5207 38.95L82.1707 49.9C82.8207 50.25 84.0707 50.425 85.9207 50.425V52H73.6207V50.425C76.2707 50.425 77.9707 49.9 78.7207 48.85L87.4957 35.8L78.7957 21.775C78.2957 20.975 76.8207 20.575 74.3707 20.575V19H88.9207V20.575C87.7207 20.575 86.7457 20.65 85.9957 20.8L91.5457 29.8L97.3957 21.1C96.7457 20.75 95.4957 20.575 93.6457 20.575V19H105.946ZM133.305 52V50.425C135.605 50.425 137.055 50.125 137.655 49.525L133.455 38.05H119.055L115.155 49.075C115.655 49.975 117.205 50.425 119.805 50.425V52H107.505V50.425C110.305 50.425 111.88 49.9 112.23 48.85L126.78 8.125H130.38L144.93 48.85C145.28 49.9 146.88 50.425 149.73 50.425V52H133.305ZM126.18 18.1L119.955 35.575H132.555L126.18 18.1ZM146.955 8.125H184.605V15.4H183.03C183.03 12.7 182.53 11.125 181.53 10.675H169.23V48.925C169.68 49.925 171.255 50.425 173.955 50.425V52H157.605V50.425C160.305 50.425 161.88 49.925 162.33 48.925V10.675H150.03C149.03 11.125 148.53 12.7 148.53 15.4H146.955V8.125ZM188.962 52C188.962 51.45 189.687 50.4 191.137 48.85C192.637 47.25 194.437 45.4 196.537 43.3C198.637 41.2 200.712 38.95 202.762 36.55C204.862 34.15 206.637 31.55 208.087 28.75C209.587 25.95 210.337 23.35 210.337 20.95C210.337 18.65 209.687 16.575 208.387 14.725C207.137 12.825 205.312 11.875 202.912 11.875C200.862 11.875 199.062 12.125 197.512 12.625C195.962 13.125 194.787 13.725 193.987 14.425C193.237 15.125 192.612 15.825 192.112 16.525C191.612 17.225 191.212 17.825 190.912 18.325C190.662 18.825 190.462 19.075 190.312 19.075C189.912 19.075 189.712 18.825 189.712 18.325C189.712 17.775 189.962 16.95 190.462 15.85C190.962 14.75 191.712 13.55 192.712 12.25C193.712 10.9 195.187 9.75 197.137 8.8C199.087 7.85 201.287 7.375 203.737 7.375C208.387 7.375 211.862 8.6 214.162 11.05C216.512 13.45 217.687 16.425 217.687 19.975C217.687 22.025 216.662 24.575 214.612 27.625C212.562 30.625 210.287 33.375 207.787 35.875C205.337 38.375 203.087 40.7 201.037 42.85C198.987 45 197.962 46.3 197.962 46.75H213.787C215.837 45.85 217.312 44.275 218.212 42.025H219.712L216.862 52H188.962ZM246.879 8.125V47.425C246.879 48.475 247.879 49.25 249.879 49.75C251.879 50.2 253.954 50.425 256.104 50.425V52H230.754V50.425C232.904 50.425 234.979 50.2 236.979 49.75C238.979 49.25 239.979 48.475 239.979 47.425V18.7C237.879 19.95 235.229 21.775 232.029 24.175L231.504 22.9L244.854 8.125H246.879Z" fill="black"/>
</svg>
