<svg width="101" height="55" viewBox="0 0 101 55" fill="currentColor" xmlns="http://www.w3.org/2000/svg">
<path d="M84.4529 6.3C83.7529 5.55 83.4029 4.675 83.4029 3.675C83.4029 2.675 83.7529 1.825 84.4529 1.125C85.2029 0.375002 86.0779 0 87.0779 0C88.0779 0 88.9279 0.375002 89.6279 1.125C90.3779 1.825 90.7529 2.675 90.7529 3.675C90.7529 4.675 90.3779 5.55 89.6279 6.3C88.9279 7 88.0779 7.35 87.0779 7.35C86.0779 7.35 85.2029 7 84.4529 6.3ZM70.6529 6.3C69.9529 5.55 69.6029 4.675 69.6029 3.675C69.6029 2.675 69.9529 1.825 70.6529 1.125C71.4029 0.375002 72.2779 0 73.2779 0C74.2779 0 75.1279 0.375002 75.8279 1.125C76.5779 1.825 76.9529 2.675 76.9529 3.675C76.9529 4.675 76.5779 5.55 75.8279 6.3C75.1279 7 74.2779 7.35 73.2779 7.35C72.2779 7.35 71.4029 7 70.6529 6.3ZM66.9029 31.35C66.9029 34.65 67.3529 37.825 68.2529 40.875C69.2029 43.875 70.7279 46.5 72.8279 48.75C74.9779 50.95 77.5279 52.05 80.4779 52.05C83.4279 52.05 85.9029 51 87.9029 48.9C89.9529 46.8 91.3779 44.35 92.1779 41.55C93.0279 38.7 93.4529 35.7 93.4529 32.55C93.4529 29.3 92.9779 26.15 92.0279 23.1C91.0779 20 89.5279 17.35 87.3779 15.15C85.2779 12.9 82.7779 11.775 79.8779 11.775C77.6279 11.775 75.6279 12.375 73.8779 13.575C72.1779 14.775 70.8279 16.375 69.8279 18.375C68.8779 20.325 68.1529 22.4 67.6529 24.6C67.1529 26.8 66.9029 29.05 66.9029 31.35ZM59.4029 31.95C59.4029 25.7 61.3529 20.35 65.2529 15.9C69.1529 11.45 74.1279 9.225 80.1779 9.225C86.2279 9.225 91.2029 11.45 95.1029 15.9C99.0029 20.35 100.953 25.7 100.953 31.95C100.953 38.2 98.9779 43.55 95.0279 48C91.1279 52.4 86.1779 54.6 80.1779 54.6C74.0779 54.6 69.0779 52.4 65.1779 48C61.3279 43.6 59.4029 38.25 59.4029 31.95Z" />
<path d="M37.1338 53.85V52.275C39.8338 52.275 41.4088 51.775 41.8588 50.775V13.05C41.4088 12.05 39.8338 11.55 37.1338 11.55V9.975H53.4838V11.55C50.7838 11.55 49.2088 12.05 48.7588 13.05V50.775C49.2088 51.775 50.7838 52.275 53.4838 52.275V53.85H37.1338Z" />
<path d="M0 53.85V52.275C2.7 52.275 4.275 51.775 4.725 50.775V13.05C4.275 12.05 2.7 11.55 0 11.55V9.975H16.35V11.55C13.65 11.55 12.075 12.05 11.625 13.05V51.3H28.725C29.975 50.75 31.1 49.175 32.1 46.575H33.6L31.8 53.85H0Z" />
</svg>
