<svg id="liö_logo" xmlns="http://www.w3.org/2000/svg" viewBox="0 0 1000 435.63"><defs><style>.cls-1{fill:#006579;}.cls-2{fill:#3b89a0;}.cls-3{fill:#fff;}</style></defs><title>Zeichenfläche 2</title><path class="cls-1" d="M354.35,208.18l3.92,0-.19,42.9,23.06.1,0,3.59-27-.11Z"/><path class="cls-1" d="M382.14,255.82l-29-.12.21-48.55,6,0-.19,42.9,23.06.09Zm-27-2.16,24.92.1v-1.54l-23.06-.1.19-42.9h-1.87Z"/><path class="cls-1" d="M395.12,240.08c.61,7.45,5.92,12.1,13.37,12.13a17.6,17.6,0,0,0,10.61-3.61l0,4.11a21.39,21.39,0,0,1-10.86,2.9c-9.7,0-16.86-6.75-16.82-16.57s7.13-16.47,15.67-16.44c7.65,0,14,5.52,13.94,14.9,0,1-.07,1.92-.14,2.69ZM417.29,237c-.16-8.48-6.12-11-10.36-11-5.26,0-10.61,3.61-11.67,10.93Z"/><path class="cls-1" d="M408.3,256.64h-.09c-10.38-.05-17.88-7.45-17.84-17.61.05-10,7.19-17.45,16.63-17.45h.08a14.8,14.8,0,0,1,10.57,4.24A16,16,0,0,1,422,237.5c0,.81,0,1.72-.14,2.78l-.08.94-25.54-.11c1,6.22,5.56,10,12.22,10.08a16.55,16.55,0,0,0,10-3.42l1.63-1.19,0,6.7-.49.3A22.41,22.41,0,0,1,408.3,256.64Zm-1.3-33c-8.27,0-14.54,6.61-14.58,15.41,0,9.11,6.46,15.51,15.8,15.55h.08a20.6,20.6,0,0,0,9.76-2.47v-1.6a18.39,18.39,0,0,1-9.59,2.72c-8.09,0-13.74-5.17-14.38-13.07l-.09-1.12,25.91.11c0-.61.06-1.16.06-1.67a14,14,0,0,0-3.78-10.22,12.8,12.8,0,0,0-9.13-3.64Zm11.33,14.43-24.25-.1.17-1.17c1.18-8.17,7.18-11.81,12.63-11.81h.06c5.14,0,11.21,3.19,11.37,12Zm-21.84-2.15,19.72.09c-.7-8.49-7.81-9-9.28-9h-.05C402.58,227,397.86,229.78,396.49,235.91Z"/><path class="cls-1" d="M455,223.51l4.3,0-11.69,14.72,13.16,16.88-4.5,0L450.7,248c-1.92-2.45-3.77-4.89-5.56-7.28H445c-1.87,2.43-3.81,4.93-5.74,7.36l-5.55,7-4.31,0,13.3-16.71-11.62-14.88,4.49,0,4.92,6.31c1.6,2.07,3.13,4.06,4.66,6.12h.13c1.55-2.05,3-4,4.78-6.15Z"/><path class="cls-1" d="M462.86,256.17l-7.11,0-5.86-7.55c-1.74-2.22-3.43-4.45-4.82-6.3-1.89,2.45-3.5,4.5-5,6.39L434.21,256l-6.92,0,14.12-17.72L429,222.38l7.11,0,5.22,6.7c1.17,1.52,2.53,3.27,3.92,5.14,1.4-1.83,2.67-3.46,4-5.17l5.21-6.59,6.92,0-12.5,15.75Zm-6.1-2.08h1.88l-12.35-15.86,10.87-13.69h-1.69l-4.6,5.82c-1.6,2-3.07,3.89-4.76,6.12l-.31.42h-1.16l-.3-.41c-1.65-2.22-3.28-4.33-4.65-6.11l-4.61-5.92H433.2L444,238.3,431.53,254h1.69l5.25-6.59c1.69-2.12,3.51-4.46,5.73-7.35l.31-.4h1.15l.3.42c1.51,2,3.5,4.64,5.55,7.26Z"/><path class="cls-1" d="M474.6,215.5a2.92,2.92,0,1,1,3-2.87A2.88,2.88,0,0,1,474.6,215.5Zm-1.9,8.09,3.79,0-.14,31.59-3.79,0Z"/><path class="cls-1" d="M477.37,256.23l-5.84,0,.15-33.64,5.84,0Zm-3.77-2.07h1.73l.13-29.54h-1.74Zm1-37.63h0a3.85,3.85,0,0,1-2.77-1.17,4,4,0,0,1-1.13-2.83,3.91,3.91,0,0,1,4-3.89h0a4,4,0,0,1,2.73,6.77A4,4,0,0,1,474.61,216.53Zm.06-5.84a1.87,1.87,0,0,0-1.92,1.85,1.92,1.92,0,0,0,.54,1.39,1.82,1.82,0,0,0,1.31.55h0a2,2,0,0,0,1.38-.54,1.84,1.84,0,0,0,.55-1.32,1.87,1.87,0,0,0-1.86-1.93Z"/><path class="cls-1" d="M493.9,206.21l3.79,0-.14,31.4.07.06,16-13.93,4.88,0L502.3,237.84l17.78,17.55-5.07,0-17.39-17.28-.07.06-.07,17.15-3.79,0Z"/><path class="cls-1" d="M522.59,256.42l-8,0-16-15.92-.07,15.85-5.84,0,.22-51.11,5.84,0-.13,30.28,14.7-12.75,8,0-17.48,15.12Zm-7.16-2.08h2.14l-16.78-16.56,15-13h-1.76l-15.13,13.14Zm-20.71-.09h1.74l.08-16.55v-.08l.13-30.38h-1.74Z"/><path class="cls-1" d="M550.28,252.31a16.65,16.65,0,0,1-10.55,3.87,12.4,12.4,0,0,1-7.44-2.22,8.17,8.17,0,0,1-3.25-6.82,8.35,8.35,0,0,1,4-7.3,16.22,16.22,0,0,1,8.68-2.08,30.69,30.69,0,0,1,8.15,1.19l0-3.66c0-3.09-.56-5.08-2.28-6.63a9.74,9.74,0,0,0-6.48-2,16.64,16.64,0,0,0-9.71,3V225.9a19.3,19.3,0,0,1,10.1-2.79c3.79,0,6.86,1,9,2.8s3.19,4.64,3.17,8.49l-.06,13.68c0,2.7.63,4.69,3.19,4.7a4.16,4.16,0,0,0,2.06-.5v3.27a6.73,6.73,0,0,1-2.77.5,5.7,5.7,0,0,1-5.7-3.74ZM549.87,242a29.93,29.93,0,0,0-7.83-1.19c-4.49,0-9.12,1.38-9.14,6.07,0,4.11,3.5,5.92,7.36,5.94a14.9,14.9,0,0,0,9.58-3.69Z"/><path class="cls-1" d="M539.79,257.2h-.07a13.54,13.54,0,0,1-8.05-2.42,9.14,9.14,0,0,1-3.65-7.64,9.4,9.4,0,0,1,4.47-8.16c2.93-1.88,6.67-2.24,9.25-2.25a30.59,30.59,0,0,1,7.12.9v-2.35c0-2.95-.53-4.59-1.94-5.85a8.73,8.73,0,0,0-5.8-1.76,15.67,15.67,0,0,0-9.1,2.85l-1.64,1.17,0-6.37.48-.3a19.92,19.92,0,0,1,10.64-2.93c4,0,7.33,1.07,9.64,3s3.55,5.14,3.54,9.28l-.06,13.68a5.82,5.82,0,0,0,.49,2.84,1.71,1.71,0,0,0,1.68.83,3,3,0,0,0,1.56-.38l1.52-.84,0,5.68-.6.27a7.83,7.83,0,0,1-3.19.59,6.79,6.79,0,0,1-6.11-3.24A17.71,17.71,0,0,1,539.79,257.2Zm1.84-18.42a15.32,15.32,0,0,0-8,1.92,7.33,7.33,0,0,0-3.54,6.45,7.15,7.15,0,0,0,2.84,6,11.46,11.46,0,0,0,6.82,2h.06a15.52,15.52,0,0,0,9.82-3.62l.29-.25h1.22l.25.68a4.67,4.67,0,0,0,4.74,3.07,6.48,6.48,0,0,0,1.73-.2v-1.11a9.15,9.15,0,0,1-1,.09,3.73,3.73,0,0,1-3.45-1.86,7.63,7.63,0,0,1-.76-3.87l0-13.68c0-3.5-.93-6.1-2.81-7.71s-4.81-2.54-8.32-2.55h-.07a18.31,18.31,0,0,0-9,2.34v1.34a18.31,18.31,0,0,1,8.68-2.2,10.6,10.6,0,0,1,7.15,2.27c1.89,1.69,2.65,3.83,2.63,7.4l0,5-1.29-.35a29.6,29.6,0,0,0-7.88-1.16Zm-1.32,15h-.06c-5.11,0-8.4-2.76-8.38-7,0-4.5,3.69-7.08,10.07-7.08h.11a30.12,30.12,0,0,1,8.11,1.23l.74.22,0,8.36-.35.31A15.89,15.89,0,0,1,540.31,253.8Zm1.64-12c-3,0-8,.67-8,5,0,3.6,3.27,4.9,6.34,4.91a13.82,13.82,0,0,0,8.56-3.14l0-5.87a28.37,28.37,0,0,0-6.8-.94Z"/><path class="cls-1" d="M571.66,206.54l3.79,0-.21,49.06h-3.79Z"/><path class="cls-1" d="M576.26,256.65l-5.84,0,.22-51.12,5.84,0Zm-3.78-2.06h1.74l.2-47h-1.74Z"/><path class="cls-1" d="M594.61,216a2.92,2.92,0,1,1,3-2.88A2.9,2.9,0,0,1,594.61,216Zm-1.9,8.08,3.79,0-.13,31.59h-3.79Z"/><path class="cls-1" d="M597.39,256.74l-5.84,0,.14-33.65,5.84,0Zm-3.78-2.06h1.73l.13-29.54h-1.74Zm1-37.64h0a4,4,0,0,1-2.73-6.76,4,4,0,0,1,2.81-1.13h0a3.87,3.87,0,0,1,2.78,1.17,4,4,0,0,1,1.12,2.83A3.9,3.9,0,0,1,594.62,217Zm0-2h0a1.87,1.87,0,0,0,1.93-1.85,2,2,0,0,0-.54-1.39,1.84,1.84,0,0,0-1.32-.55,2,2,0,0,0-1.38.54,1.84,1.84,0,0,0-.55,1.32,1.86,1.86,0,0,0,1.85,1.93Z"/><path class="cls-1" d="M611.93,249.68a22.63,22.63,0,0,0,11.93,3.39c5.33,0,8.74-1.83,8.76-5.61,0-4.76-5.25-5.29-10.19-6.08-5.26-.86-11.23-2.43-11.2-8.85,0-6,5.11-9,12.31-9a24.77,24.77,0,0,1,11.35,2.74l0,4A22,22,0,0,0,623.39,227c-4.94,0-8.35,1.7-8.37,5.3,0,4.43,5.12,4.9,9.87,5.69,5.71.93,11.55,2.49,11.52,9.17,0,6.23-5.12,9.42-12.76,9.39a25.07,25.07,0,0,1-11.74-2.81Z"/><path class="cls-1" d="M623.77,257.56h-.12a25.86,25.86,0,0,1-12.24-2.94l-.53-.3,0-6.52,1.58,1A21.54,21.54,0,0,0,623.86,252a11.21,11.21,0,0,0,5.84-1.22,3.69,3.69,0,0,0,1.89-3.37c0-3.35-3.19-4.1-8.46-4.93l-.86-.13c-3.93-.64-12.1-2-12.06-9.86,0-6.19,5.09-10,13.22-10h.11a25.61,25.61,0,0,1,11.84,2.88l.54.29,0,6.46-1.57-1a21,21,0,0,0-10.93-3.1c-2.2,0-7.32.39-7.34,4.27,0,3,3,3.71,7.94,4.51l1.07.17c4.33.7,12.41,2,12.37,10.18a9.26,9.26,0,0,1-3.95,7.88C631.12,256.69,627.77,257.56,623.77,257.56Zm-10.83-4.45a24.7,24.7,0,0,0,10.72,2.4c3.59,0,6.61-.73,8.63-2.16a7.18,7.18,0,0,0,3.09-6.2c0-5.35-4.06-7.09-10.66-8.15l-1.05-.18c-4.55-.73-9.69-1.55-9.67-6.53,0-4,3.49-6.32,9.31-6.32h.09a23.55,23.55,0,0,1,10.46,2.52v-1.6a24.41,24.41,0,0,0-10.33-2.34h-.1c-7,0-11.15,3-11.17,8s4.12,6.82,10.34,7.83l.84.14c4.8.75,10.23,1.6,10.2,7a5.77,5.77,0,0,1-2.87,5.11,13.46,13.46,0,0,1-6.91,1.52A24.16,24.16,0,0,1,613,251.46Z"/><path class="cls-1" d="M674.78,254.38a19,19,0,0,1-9.45,2.33c-9.83,0-16.67-7.07-16.63-16.44,0-9.57,7.27-16.6,17.09-16.56a18.89,18.89,0,0,1,8.6,2.09l0,4a16.44,16.44,0,0,0-8.72-2.6c-7.84,0-13.13,5.66-13.16,13.1s5.4,12.93,13,13a15,15,0,0,0,9.26-3Z"/><path class="cls-1" d="M665.42,257.74h-.1c-10.27,0-17.69-7.39-17.64-17.48s7.61-17.58,18-17.58h.09a20,20,0,0,1,9.07,2.21l.55.29,0,6.45-1.56-1a15.45,15.45,0,0,0-8.19-2.45c-7.1,0-12.09,4.94-12.12,12.09a11.82,11.82,0,0,0,3.34,8.58,12.21,12.21,0,0,0,8.68,3.35,13.94,13.94,0,0,0,8.63-2.76l1.66-1.29,0,6.8-.51.3A20,20,0,0,1,665.42,257.74Zm.28-33c-9.22,0-15.93,6.53-16,15.54s6.52,15.38,15.6,15.42a18.26,18.26,0,0,0,8.42-1.92v-1.58a16.51,16.51,0,0,1-8.15,2.08h-.08a14.28,14.28,0,0,1-10.12-4,13.9,13.9,0,0,1-3.95-10c0-8.2,6-14.13,14.12-14.13h.07a17.06,17.06,0,0,1,7.7,1.88v-1.6a18.06,18.06,0,0,0-7.57-1.7Z"/><path class="cls-1" d="M690.39,207.05l3.79,0-.1,21.9.13.06a17.74,17.74,0,0,1,12.16-5.15,10.68,10.68,0,0,1,8.08,3.25c1.92,2.06,2.8,4.76,2.78,9.45l-.08,19.65-3.79,0,.08-18.94c0-4-.55-6-2-7.59a7.31,7.31,0,0,0-5.71-2.27c-4.43,0-8.48,2.34-11.64,5.6l-.1,23.12-3.79,0Z"/><path class="cls-1" d="M718.17,257.26l-5.84,0,.09-20c0-3.67-.46-5.53-1.74-6.88a6.35,6.35,0,0,0-5-1.95c-3.63,0-7.36,1.75-10.62,5l-.1,23.72-5.84,0,.22-51.12,5.84,0-.09,20.86a18.15,18.15,0,0,1,11.18-4h.08a11.7,11.7,0,0,1,8.82,3.57c2.17,2.33,3.08,5.37,3.06,10.16Zm-3.78-2.07h1.74l.08-18.62c0-4.28-.71-6.82-2.51-8.75a9.58,9.58,0,0,0-7.33-2.92h-.07a16.94,16.94,0,0,0-11.39,4.87l-.52.49-1.33-.67.09-21.51h-1.74l-.2,47H693l.09-22.5.29-.3c3.7-3.82,8.07-5.91,12.33-5.91h.06a8.36,8.36,0,0,1,6.46,2.61c1.66,1.74,2.31,4.07,2.29,8.27Z"/><path class="cls-1" d="M735.77,241.54c.61,7.45,5.92,12.1,13.37,12.13a17.6,17.6,0,0,0,10.61-3.61l0,4.1a21.26,21.26,0,0,1-10.86,2.91c-9.7,0-16.86-6.75-16.82-16.57s7.14-16.48,15.68-16.44c7.64,0,14,5.52,13.93,14.89,0,1-.07,1.93-.14,2.7Zm22.17-3c-.16-8.48-6.12-11-10.36-11-5.26,0-10.61,3.62-11.67,10.93Z"/><path class="cls-1" d="M749,258.1h-.09a18.28,18.28,0,0,1-12.77-4.91,17.35,17.35,0,0,1-5.07-12.7,18,18,0,0,1,5-12.61A16.29,16.29,0,0,1,747.66,223h.07a14.84,14.84,0,0,1,10.57,4.25A16,16,0,0,1,762.69,239c0,.8-.05,1.71-.15,2.78l-.08.94-25.54-.11c1,6.22,5.56,10,12.22,10.07h.08a16.56,16.56,0,0,0,9.93-3.41l1.64-1.19,0,6.7-.49.3A22.41,22.41,0,0,1,749,258.1Zm-1.29-33a14.23,14.23,0,0,0-10.23,4.23,15.87,15.87,0,0,0-4.35,11.18,15.1,15.1,0,0,0,4.44,11.22,16.24,16.24,0,0,0,11.35,4.33,20.8,20.8,0,0,0,9.84-2.47V252a18,18,0,0,1-9.58,2.72c-8.1,0-13.74-5.16-14.39-13.07l-.09-1.11,25.91.11c0-.62.06-1.17.07-1.67a14.06,14.06,0,0,0-3.79-10.22,12.74,12.74,0,0,0-9.13-3.64ZM759,239.52l-24.25-.11.17-1.16c1.18-8.17,7.19-11.81,12.64-11.81h.05c5.14,0,11.21,3.18,11.37,12Zm-21.84-2.15,19.72.09c-.7-8.49-7.81-9-9.28-9h0C743.24,228.49,738.52,231.24,737.14,237.37Z"/><path class="cls-1" d="M775,250.38A22.74,22.74,0,0,0,787,253.77c5.33,0,8.74-1.83,8.76-5.62,0-4.75-5.24-5.28-10.18-6.08-5.27-.85-11.23-2.42-11.21-8.84,0-6,5.12-9,12.31-9A24.65,24.65,0,0,1,798,227v4a22.11,22.11,0,0,0-11.48-3.26c-5,0-8.36,1.7-8.37,5.3,0,4.43,5.11,4.9,9.86,5.69,5.71.92,11.55,2.49,11.52,9.17,0,6.23-5.11,9.42-12.76,9.38A24.83,24.83,0,0,1,775,254.42Z"/><path class="cls-1" d="M786.87,258.26h-.12a25.86,25.86,0,0,1-12.24-2.94L774,255l0-6.52,1.58,1A21.66,21.66,0,0,0,787,252.74a11.08,11.08,0,0,0,5.83-1.22,3.69,3.69,0,0,0,1.89-3.37c0-3.36-3.19-4.1-8.46-4.93l-.86-.13c-3.93-.64-12.09-2-12.06-9.87,0-6.19,5.09-10,13.22-10h.11a25.6,25.6,0,0,1,11.84,2.87l.54.3,0,6.45-1.57-1a20.86,20.86,0,0,0-10.93-3.1c-2.22,0-7.32.39-7.34,4.27,0,3,3,3.71,7.94,4.51l1.07.17c4.33.7,12.41,2,12.37,10.18a9.28,9.28,0,0,1-3.95,7.88C794.23,257.39,790.87,258.26,786.87,258.26ZM776,253.81a24.7,24.7,0,0,0,10.72,2.4c3.61,0,6.61-.73,8.64-2.16a7.2,7.2,0,0,0,3.08-6.21c0-5.35-4.06-7.08-10.65-8.15l-1.06-.17c-4.54-.73-9.69-1.56-9.67-6.54,0-4,3.5-6.31,9.31-6.31h.09A23.51,23.51,0,0,1,797,229.18v-1.59a24.25,24.25,0,0,0-10.32-2.34h-.11c-7,0-11.15,3-11.17,8s4.12,6.82,10.34,7.83l.85.13c4.79.76,10.22,1.61,10.2,7a5.75,5.75,0,0,1-2.88,5.1,13.14,13.14,0,0,1-6.91,1.53,24.22,24.22,0,0,1-10.91-2.63Z"/><path class="cls-1" d="M311.53,285.06l3.91,0-.19,46.49-3.92,0Z"/><path class="cls-1" d="M316.27,332.6l-6,0,.21-48.54,6,0Zm-3.91-2.07h1.86l.19-44.44h-1.86Z"/><path class="cls-1" d="M332.91,300.05l3.79,0,0,4.43.13.06A18,18,0,0,1,349,299.41a10.69,10.69,0,0,1,8.08,3.25c1.91,2.06,2.8,4.76,2.78,9.45l-.08,19.65-3.79,0L356,312.8c0-3.79-.55-6-2-7.59a7.82,7.82,0,0,0-5.9-2.27c-4.3,0-8.42,2.34-11.52,5.6l-.09,23.12-3.79,0Z"/><path class="cls-1" d="M360.77,332.79l-5.84,0,.08-20c0-3.51-.49-5.57-1.69-6.89a6.84,6.84,0,0,0-5.14-1.93h0c-3.53,0-7.32,1.81-10.45,5l-.1,23.73-5.84,0,.14-33.64,5.84,0v3.42A18.13,18.13,0,0,1,349,298.39,11.73,11.73,0,0,1,357.8,302c2.16,2.33,3.08,5.37,3.06,10.15ZM357,330.72h1.74l.07-18.63c0-4.27-.7-6.81-2.51-8.75a9.6,9.6,0,0,0-7.33-2.91h-.06c-4,0-7.84,1.64-11.4,4.88l-.52.47-1.33-.66,0-4h-1.74l-.12,29.54h1.73l.1-22.5.28-.29c3.59-3.79,8.1-5.94,12.27-5.93a8.78,8.78,0,0,1,6.65,2.61c1.58,1.74,2.24,4.21,2.23,8.28Z"/><path class="cls-1" d="M378.49,303.58l-5.4,0,0-3.34,5.39,0,0-6.87c0-4,.67-6.93,2.74-8.91a9.79,9.79,0,0,1,6.81-2.35,14.65,14.65,0,0,1,4.11.6v3.4a16.62,16.62,0,0,0-4-.53c-4.75,0-5.86,2.93-5.88,7.3l0,7.38,8.8,0,0,3.34-8.79,0-.12,28.25h-3.79Z"/><path class="cls-1" d="M383.18,332.89l-5.84,0,.12-28.26-5.4,0,0-5.39,5.39,0,0-5.84c0-4.73.93-7.62,3.05-9.65,2.41-2.31,5.75-2.61,7.53-2.63a15.34,15.34,0,0,1,4.41.64l.72.23,0,5.53-1.32-.4a15.14,15.14,0,0,0-3.69-.48c-2.54,0-3.4.88-3.86,1.55-.66,1-1,2.47-1,4.72l0,6.36,8.8,0,0,5.39-8.79,0Zm-3.78-2.07h1.74l.12-28.25,8.79,0v-1.29l-8.8,0,0-8.41c0-2.67.44-4.54,1.34-5.86,1.13-1.66,3-2.47,5.56-2.45a17.61,17.61,0,0,1,3,.27v-1.34a14.06,14.06,0,0,0-3.08-.35,8.9,8.9,0,0,0-6.1,2.06c-1.68,1.61-2.4,4.06-2.42,8.18l0,7.89-5.39,0v1.29l5.4,0Z"/><path class="cls-1" d="M417.8,299.71a16.5,16.5,0,1,1-16.44,16.43A16.08,16.08,0,0,1,417.8,299.71Zm-.12,29.53c7.19,0,12.61-5.53,12.64-13S425,303.2,417.79,303.17s-12.61,5.54-12.64,13S410.49,329.21,417.68,329.24Z"/><path class="cls-1" d="M417.74,333.74h-.08a17.29,17.29,0,0,1-12.44-5.12,17.62,17.62,0,0,1-4.89-12.49,17.09,17.09,0,0,1,17.4-17.45h.08a17.07,17.07,0,0,1,17.32,17.6,17.62,17.62,0,0,1-5,12.45A17.29,17.29,0,0,1,417.74,333.74Zm0-33a15.08,15.08,0,0,0-15.35,15.41,15.64,15.64,0,0,0,4.31,11.05,15.26,15.26,0,0,0,11,4.5h.07a15.24,15.24,0,0,0,10.94-4.41,15.57,15.57,0,0,0,4.4-11,15.07,15.07,0,0,0-15.28-15.54Zm0,29.54h-.07a13.37,13.37,0,0,1-9.71-4.08,14.33,14.33,0,0,1-3.84-10c0-8,5.88-14,13.61-14h.06c7.76,0,13.59,6.1,13.56,14.12a14.27,14.27,0,0,1-3.93,10A13.36,13.36,0,0,1,417.74,330.27Zm0-26.07c-6.56,0-11.53,5.13-11.56,12a12.28,12.28,0,0,0,3.27,8.61,11.33,11.33,0,0,0,8.24,3.45h0a11.25,11.25,0,0,0,8.27-3.38,12.29,12.29,0,0,0,3.35-8.58c0-6.85-4.92-12-11.51-12.06Z"/><path class="cls-1" d="M449.14,300.55h3.79l0,5.14.13.06a12.93,12.93,0,0,1,10.24-5.47,8.22,8.22,0,0,1,1.86.2l0,3.66a9.38,9.38,0,0,0-2-.2c-4.3,0-7.65,2.27-10.23,6.12l-.1,22.09-3.79,0Z"/><path class="cls-1" d="M453.81,333.19l-5.84,0,.15-33.64,5.84,0,0,3.65a13.4,13.4,0,0,1,9.28-3.93h0a9.14,9.14,0,0,1,2.08.23l.81.18,0,5.76-1.25-.28a8.22,8.22,0,0,0-1.76-.18c-3.69,0-6.67,1.76-9.21,5.41ZM450,331.12h1.74l.09-21.38.17-.26c3-4.38,6.69-6.6,11.1-6.57.33,0,.65,0,1,0v-1.61c-.26,0-.54,0-.84,0h0a11.86,11.86,0,0,0-9.37,5.07l-.52.69-1.45-.74,0-4.75h-1.74Z"/><path class="cls-1" d="M523,313.26c0-3.47-.49-5.79-2-7.4a7.67,7.67,0,0,0-5.71-2.2c-4.24,0-8.29,2.34-11.33,5.47a25.77,25.77,0,0,1,.18,3.4l-.08,19.85-3.79,0,.08-19.2c0-3.66-.42-5.78-1.89-7.39a7.69,7.69,0,0,0-5.77-2.21c-4.3,0-8.17,2.4-11.14,5.34l-.1,23.38-3.78,0,.13-31.59,3.79,0,0,4.3.13.06c3.09-2.81,7-5,11.71-5,4,0,8,1.77,9.73,5.88,3.94-3.7,8.12-5.8,12.81-5.78a10.71,10.71,0,0,1,8.07,3.18c1.92,2.06,2.75,4.7,2.73,9.32l-.09,19.84h-3.79Z"/><path class="cls-1" d="M527.72,333.5l-5.84,0,.09-20.23h0c0-3.38-.49-5.38-1.69-6.69a6.65,6.65,0,0,0-4.95-1.88c-3.42,0-7.13,1.74-10.25,4.82.09.94.13,2,.13,3l-.09,20.87-5.84,0,.09-20.23c0-3.56-.43-5.38-1.63-6.69a6.68,6.68,0,0,0-5-1.88h0c-4.17,0-7.73,2.52-10.06,4.76l-.1,24-5.84,0,.14-33.64,5.84,0V303A17.4,17.4,0,0,1,493.38,299h.07c4.45,0,8.1,2,10.05,5.25,4-3.48,8.11-5.14,12.49-5.15a11.75,11.75,0,0,1,8.83,3.51c2.14,2.31,3,5.22,3,10Zm-3.78-2.06h1.74l.08-18.81c0-4.24-.69-6.73-2.45-8.63a9.72,9.72,0,0,0-7.33-2.85h-.06c-4.16,0-8.1,1.8-12,5.51l-1.08,1-.57-1.37c-2-4.72-6.81-5.25-8.8-5.25-3.82,0-7.47,1.53-11,4.75l-.52.48-1.33-.67,0-3.91h-1.74l-.12,29.54h1.73l.1-22.77.3-.3c2.6-2.58,6.76-5.65,11.81-5.65h.05a8.76,8.76,0,0,1,6.51,2.53c1.83,2,2.19,4.59,2.18,8.1l-.08,18.18h1.74l.08-18.82a29.74,29.74,0,0,0-.17-3.28l-.06-.48.34-.35c3.57-3.7,8-5.8,12.06-5.79a8.59,8.59,0,0,1,6.47,2.55c1.57,1.72,2.24,4.14,2.22,8.08h0Z"/><path class="cls-1" d="M562.87,329.42a16.65,16.65,0,0,1-10.55,3.87,12.4,12.4,0,0,1-7.44-2.22,8.17,8.17,0,0,1-3.25-6.82,8.34,8.34,0,0,1,4-7.3,16.16,16.16,0,0,1,8.67-2.08,30.76,30.76,0,0,1,8.16,1.19V312.4c0-3.08-.55-5.08-2.28-6.63a9.65,9.65,0,0,0-6.48-2,16.61,16.61,0,0,0-9.71,3l0-3.79a19.14,19.14,0,0,1,10.09-2.78c3.79,0,6.87,1,9,2.79s3.19,4.64,3.17,8.5l-.06,13.67c0,2.7.63,4.69,3.2,4.7a4.12,4.12,0,0,0,2.05-.5v3.27a6.87,6.87,0,0,1-2.76.51,5.71,5.71,0,0,1-5.7-3.75Zm-.41-10.34a29.06,29.06,0,0,0-7.83-1.19c-4.49,0-9.12,1.37-9.14,6.06,0,4.11,3.5,5.92,7.36,5.94a14.9,14.9,0,0,0,9.58-3.69Z"/><path class="cls-1" d="M552.38,334.31h-.06a13.48,13.48,0,0,1-8.06-2.42,9.14,9.14,0,0,1-3.65-7.64,9.39,9.39,0,0,1,4.48-8.16,17.28,17.28,0,0,1,9.24-2.25,30.81,30.81,0,0,1,7.13.9v-2.35c0-2.95-.54-4.59-2-5.85a8.72,8.72,0,0,0-5.79-1.76,15.8,15.8,0,0,0-9.11,2.85L543,308.8l0-6.37.49-.29a20.34,20.34,0,0,1,10.64-2.94c4,0,7.33,1.07,9.64,3.05s3.55,5.14,3.53,9.27l-.06,13.68c0,3.38,1.06,3.66,2.17,3.67a3.36,3.36,0,0,0,1.56-.38l1.53-.84,0,5.68-.6.27a7.39,7.39,0,0,1-3.19.59,6.77,6.77,0,0,1-6.1-3.24A17.74,17.74,0,0,1,552.38,334.31Zm1.84-18.42a15.32,15.32,0,0,0-8,1.92,7.33,7.33,0,0,0-3.54,6.45,7.19,7.19,0,0,0,2.84,6,11.51,11.51,0,0,0,6.82,2,15.48,15.48,0,0,0,9.88-3.62l.29-.25h1.22l.25.68a4.68,4.68,0,0,0,4.74,3.07,7.29,7.29,0,0,0,1.74-.2v-1.11a5,5,0,0,1-1,.09c-2.81,0-4.23-1.94-4.21-5.73l.06-13.68c0-3.5-.93-6.09-2.82-7.71s-4.81-2.53-8.31-2.55h-.08a18.33,18.33,0,0,0-9,2.34v1.34a18.08,18.08,0,0,1,8.68-2.2,10.59,10.59,0,0,1,7.14,2.27c1.89,1.69,2.65,3.84,2.64,7.4l0,5-1.28-.35a29.72,29.72,0,0,0-7.89-1.16Zm-1.32,15h-.06c-5.11,0-8.4-2.76-8.38-7,0-4.5,3.69-7.08,10.08-7.08h.1a30.12,30.12,0,0,1,8.11,1.23l.74.22,0,8.37-.36.3A15.89,15.89,0,0,1,552.9,330.91Zm1.64-12c-3,0-8,.67-8,5,0,3.6,3.27,4.9,6.34,4.91a13.7,13.7,0,0,0,8.56-3.14l0-5.87a28.37,28.37,0,0,0-6.8-.94Z"/><path class="cls-1" d="M600.29,332.47a12.37,12.37,0,0,1-5,1,8.77,8.77,0,0,1-6.73-2.72c-1.6-1.87-2.23-4.7-2.21-8.81l.07-17.47-6.29,0v-3.34l6.3,0,0-8.86,3.8-.62,0,9.5,10.21,0,0,3.34-10.21,0-.07,16.82c0,4.76.67,8.68,5.68,8.7a9.26,9.26,0,0,0,4.5-1.14Z"/><path class="cls-1" d="M595.34,334.5h-.07a9.78,9.78,0,0,1-7.5-3.08c-1.72-2-2.48-4.94-2.46-9.48l.07-16.45-6.29,0,0-5.39,6.3,0,0-8.7,5.85-1,0,9.69,10.21,0,0,5.39-10.21,0-.07,15.8A13.73,13.73,0,0,0,592,327c.69,1.38,1.87,2,3.81,2a8.29,8.29,0,0,0,4-1l1.54-.88,0,6-.58.28A13.4,13.4,0,0,1,595.34,334.5Zm-14.19-31.07,6.29,0-.08,18.49c0,4,.59,6.53,2,8.14a7.78,7.78,0,0,0,5.95,2.37,13,13,0,0,0,4-.67v-1.32a10.44,10.44,0,0,1-3.47.57c-2.69,0-4.59-1.06-5.63-3.13a14.94,14.94,0,0,1-1.07-6.59l.08-17.85,10.21,0v-1.28l-10.2-.05,0-9.31-1.74.28,0,9-6.29,0Z"/><path class="cls-1" d="M616.13,293.17a2.92,2.92,0,1,1,3-2.88A2.9,2.9,0,0,1,616.13,293.17Zm-1.9,8.08,3.79,0-.13,31.59H614.1Z"/><path class="cls-1" d="M618.91,333.89l-5.84,0,.14-33.65,5.84,0Zm-3.78-2.06h1.73l.13-29.54h-1.74Zm1-37.63h0a4,4,0,0,1,.08-7.9h0a4,4,0,0,1-.08,7.9Zm0-2.06a1.9,1.9,0,1,0,.08-3.79h0a1.9,1.9,0,0,0-.07,3.79Z"/><path class="cls-1" d="M649.36,300.7a16.5,16.5,0,1,1-16.45,16.43A16.07,16.07,0,0,1,649.36,300.7Zm-.13,29.54c7.19,0,12.61-5.54,12.64-13s-5.33-13.06-12.53-13.09-12.61,5.54-12.64,13S642,330.21,649.23,330.24Z"/><path class="cls-1" d="M649.3,334.73h-.09a17.07,17.07,0,0,1-17.32-17.6,17.62,17.62,0,0,1,5-12.45,17.29,17.29,0,0,1,12.4-5h.08a17.29,17.29,0,0,1,12.44,5.12,17.62,17.62,0,0,1,4.89,12.49A17.08,17.08,0,0,1,649.3,334.73Zm0-33a15.24,15.24,0,0,0-10.94,4.41,15.56,15.56,0,0,0-4.4,11,15.08,15.08,0,0,0,15.28,15.55h.07a15.08,15.08,0,0,0,15.35-15.41,15.55,15.55,0,0,0-4.31-11,15.26,15.26,0,0,0-11-4.5h-.07Zm0,29.54h-.06c-7.76,0-13.59-6.1-13.55-14.12a14.3,14.3,0,0,1,3.92-10,13.39,13.39,0,0,1,9.68-4h.07a13.32,13.32,0,0,1,9.71,4.08,14.28,14.28,0,0,1,3.84,10C662.87,325.25,657,331.26,649.29,331.26Zm0-2.05h0c6.56,0,11.53-5.13,11.56-12a12.28,12.28,0,0,0-3.27-8.61,11.33,11.33,0,0,0-8.24-3.45h-.06a11.33,11.33,0,0,0-8.21,3.38,12.24,12.24,0,0,0-3.34,8.58c0,6.85,4.92,12,11.51,12.06Z"/><path class="cls-1" d="M680.69,301.54h3.79l0,4.43.13.07a18,18,0,0,1,12.16-5.15,10.69,10.69,0,0,1,8.08,3.24c1.91,2.07,2.8,4.77,2.78,9.46l-.08,19.65-3.79,0,.08-18.94c0-3.79-.55-6-2-7.59a7.78,7.78,0,0,0-5.9-2.27c-4.3,0-8.42,2.34-11.52,5.6l-.09,23.12-3.79,0Z"/><path class="cls-1" d="M708.55,334.28l-5.84,0,.08-20c0-3.51-.49-5.57-1.69-6.89a6.89,6.89,0,0,0-5.14-1.94h0c-3.53,0-7.32,1.82-10.45,5l-.1,23.73-5.84,0,.14-33.64,5.84,0V304a18.37,18.37,0,0,1,11.25-4.08,11.74,11.74,0,0,1,8.83,3.58c2.16,2.33,3.08,5.36,3.06,10.15Zm-3.78-2.07h1.73l.08-18.63c0-4.27-.7-6.81-2.51-8.75a9.6,9.6,0,0,0-7.33-2.91h-.06c-4,0-7.84,1.64-11.4,4.88l-.52.47-1.33-.66,0-4.05h-1.74l-.12,29.54h1.73l.1-22.5.28-.3c3.57-3.76,8-5.92,12.22-5.92H696a8.74,8.74,0,0,1,6.65,2.61c1.58,1.74,2.24,4.21,2.22,8.28Z"/><path class="cls-1" d="M723,327.21a22.65,22.65,0,0,0,11.93,3.39c5.33,0,8.74-1.82,8.76-5.61,0-4.75-5.24-5.29-10.19-6.08-5.26-.86-11.22-2.43-11.19-8.85,0-6,5.11-9,12.3-9a24.65,24.65,0,0,1,11.35,2.75v4a22.11,22.11,0,0,0-11.48-3.26c-4.95,0-8.36,1.7-8.37,5.29,0,4.43,5.11,4.91,9.86,5.7,5.71.92,11.55,2.49,11.52,9.16,0,6.23-5.11,9.42-12.76,9.39a25.07,25.07,0,0,1-11.74-2.81Z"/><path class="cls-1" d="M734.8,335.1h-.12a25.93,25.93,0,0,1-12.24-3l-.52-.29,0-6.53,1.57,1a21.67,21.67,0,0,0,11.38,3.23c2.85,0,7.71-.57,7.73-4.6,0-3.35-3.19-4.1-8.47-4.92l-.86-.14c-3.93-.64-12.09-2-12.06-9.86a8.88,8.88,0,0,1,3.91-7.59,16.33,16.33,0,0,1,9.31-2.43h.11a25.55,25.55,0,0,1,11.85,2.87l.53.29,0,6.46-1.57-1a21,21,0,0,0-10.93-3.1,11.15,11.15,0,0,0-5.5,1.15,3.45,3.45,0,0,0-1.84,3.13c0,3,3,3.71,7.95,4.5l1.06.18c4.33.7,12.41,2,12.38,10.18C748.44,331.21,743.33,335.1,734.8,335.1ZM724,330.65A24.59,24.59,0,0,0,734.69,333h.1c3.56,0,11.59-.84,11.62-8.36,0-5.35-4.06-7.09-10.65-8.15l-1.06-.17c-4.54-.73-9.69-1.56-9.67-6.54a5.48,5.48,0,0,1,2.84-4.88,12.74,12.74,0,0,1,6.56-1.44A23.52,23.52,0,0,1,744.89,306v-1.59a24.18,24.18,0,0,0-10.33-2.34,14.32,14.32,0,0,0-8.26,2.06,6.87,6.87,0,0,0-3,5.92c0,5.09,4.12,6.81,10.34,7.83l.85.13c4.79.75,10.22,1.6,10.2,7,0,4.22-3.55,6.64-9.69,6.64h-.1A24.36,24.36,0,0,1,724,329Z"/><path class="cls-1" d="M760.27,327.37a22.65,22.65,0,0,0,11.93,3.39c5.33,0,8.74-1.82,8.76-5.61,0-4.75-5.24-5.29-10.19-6.08-5.26-.86-11.22-2.43-11.2-8.85,0-6,5.12-9,12.31-9A24.65,24.65,0,0,1,783.23,304v4a22,22,0,0,0-11.48-3.26c-5,0-8.36,1.7-8.38,5.29,0,4.43,5.12,4.9,9.87,5.7,5.71.92,11.55,2.49,11.52,9.16,0,6.23-5.11,9.42-12.76,9.39a25.07,25.07,0,0,1-11.74-2.81Z"/><path class="cls-1" d="M772.11,335.25H772a25.78,25.78,0,0,1-12.24-2.94l-.52-.29,0-6.53,1.58,1a21.64,21.64,0,0,0,11.38,3.23c2.84,0,7.71-.57,7.72-4.59,0-3.36-3.19-4.11-8.46-4.93l-.86-.14c-3.93-.64-12.1-2-12.06-9.86,0-6.19,5.09-10,13.22-10h.11a25.48,25.48,0,0,1,11.84,2.87l.54.29,0,6.46-1.57-1a21,21,0,0,0-10.93-3.1,11,11,0,0,0-5.5,1.15,3.44,3.44,0,0,0-1.84,3.13c0,3,3,3.71,7.94,4.5l1.07.17c4.33.7,12.41,2,12.37,10.19C785.75,331.37,780.64,335.25,772.11,335.25Zm-10.83-4.44A24.55,24.55,0,0,0,772,333.2h.1c3.56,0,11.59-.84,11.62-8.36,0-5.35-4.06-7.08-10.65-8.15l-1.06-.17c-4.54-.73-9.69-1.56-9.67-6.54a5.48,5.48,0,0,1,2.84-4.88,12.64,12.64,0,0,1,6.46-1.44h.1a23.52,23.52,0,0,1,10.46,2.52v-1.59a24.12,24.12,0,0,0-10.33-2.34h-.1c-7,0-11.15,3-11.17,8s4.12,6.81,10.34,7.83l.84.13c4.8.75,10.23,1.6,10.21,7,0,4.22-3.55,6.64-9.69,6.64h-.1a24.3,24.3,0,0,1-10.91-2.64Z"/><path class="cls-1" d="M822.54,302.14l4,0-22,45.63-4,0,8.61-17.49L795.83,302l4.17,0,6.24,13.38c1.71,3.67,3.3,7.14,4.83,10.55h.13c1.55-3.34,3.24-6.93,4.92-10.45Z"/><path class="cls-1" d="M805.13,348.82l-6.33,0,9.12-18.52L794.21,301l6.44,0,6.52,14c1.38,3,2.69,5.81,4,8.66,1.3-2.78,2.68-5.69,4.05-8.56l6.7-14,6.25,0Zm-3-2.07h1.76l21-43.58h-1.71L817.05,316c-1.68,3.52-3.37,7.11-4.92,10.44l-.28.6-1.45,0-.27-.6c-1.56-3.48-3.14-6.93-4.82-10.53l-6-12.8h-1.9l12.76,27.23Z"/><path class="cls-1" d="M837.65,327.7a22.51,22.51,0,0,0,11.93,3.39c5.33,0,8.74-1.82,8.76-5.61,0-4.75-5.25-5.29-10.19-6.08-5.26-.86-11.23-2.42-11.2-8.85,0-6,5.11-9,12.31-9a24.81,24.81,0,0,1,11.35,2.75l0,4A22.08,22.08,0,0,0,849.11,305c-4.94,0-8.35,1.7-8.37,5.29,0,4.44,5.12,4.91,9.87,5.7,5.71.92,11.54,2.49,11.52,9.16,0,6.23-5.12,9.42-12.76,9.39a25.07,25.07,0,0,1-11.74-2.81Z"/><path class="cls-1" d="M849.49,335.59h-.12a25.87,25.87,0,0,1-12.24-2.95l-.53-.29,0-6.53,1.58,1a21.64,21.64,0,0,0,11.37,3.23c2.84,0,7.71-.57,7.73-4.59,0-3.36-3.19-4.1-8.46-4.93l-.86-.14c-3.93-.64-12.1-2-12.06-9.86a8.89,8.89,0,0,1,3.9-7.59c2.32-1.61,5.53-2.44,9.43-2.43a25.51,25.51,0,0,1,11.84,2.87l.54.29,0,6.46-1.57-1a21,21,0,0,0-10.93-3.1,10.87,10.87,0,0,0-5.51,1.15,3.42,3.42,0,0,0-1.83,3.13c0,3,3,3.71,7.94,4.5l1.07.18c4.33.7,12.41,2,12.37,10.18C863.12,331.7,858,335.59,849.49,335.59Zm-10.83-4.45a24.55,24.55,0,0,0,10.72,2.39c3.48,0,11.69-.76,11.72-8.36,0-5.35-4.06-7.08-10.66-8.15l-1.05-.17c-4.55-.73-9.7-1.56-9.67-6.54a5.47,5.47,0,0,1,2.83-4.88,13,13,0,0,1,6.57-1.44,23.48,23.48,0,0,1,10.45,2.52v-1.59a24.12,24.12,0,0,0-10.33-2.34,14.31,14.31,0,0,0-8.25,2.06,6.87,6.87,0,0,0-3,5.92c0,5.09,4.11,6.81,10.34,7.83l.84.13c4.79.75,10.23,1.6,10.2,7,0,4.22-3.54,6.64-9.68,6.64h-.11a24.29,24.29,0,0,1-10.9-2.64Z"/><path class="cls-1" d="M893,333.72a12.57,12.57,0,0,1-5,1,8.78,8.78,0,0,1-6.74-2.73c-1.59-1.87-2.22-4.7-2.21-8.81l.08-17.46-6.29,0v-3.34l6.29,0,0-8.86,3.79-.63,0,9.5,10.21.05v3.34l-10.21-.05-.08,16.83c0,4.75.67,8.67,5.68,8.69a9,9,0,0,0,4.5-1.14Z"/><path class="cls-1" d="M888,335.75H888a9.73,9.73,0,0,1-7.5-3.08c-1.72-2-2.48-4.94-2.46-9.48l.07-16.44-6.29,0,0-5.39,6.29,0,0-8.71,5.84-1,0,9.69,10.21,0,0,5.4-10.21-.05-.07,15.8a13.61,13.61,0,0,0,.84,5.66c.7,1.38,1.88,2,3.82,2h0a8.13,8.13,0,0,0,4-1l1.54-.88,0,6-.59.28A13.4,13.4,0,0,1,888,335.75Zm-14.18-31.07,6.29,0-.08,18.5c0,4,.59,6.52,2,8.13a7.8,7.8,0,0,0,6,2.37h0A11.69,11.69,0,0,0,892,333v-1.32a10.34,10.34,0,0,1-3.43.58h0c-2.7,0-4.59-1.07-5.64-3.14a15.08,15.08,0,0,1-1.06-6.59l.08-17.85,10.21.05v-1.29l-10.21-.05,0-9.31-1.74.29,0,9-6.29,0Z"/><path class="cls-1" d="M907.55,319.33c.61,7.46,5.92,12.1,13.37,12.13a17.54,17.54,0,0,0,10.61-3.61l0,4.11a21.46,21.46,0,0,1-10.86,2.91c-9.7-.05-16.86-6.76-16.82-16.58s7.14-16.47,15.68-16.44c7.64,0,14,5.52,13.93,14.9,0,1-.07,1.92-.14,2.69Zm22.17-3.05c-.16-8.48-6.12-11-10.36-11-5.26,0-10.61,3.61-11.67,10.93Z"/><path class="cls-1" d="M920.73,335.89h-.09c-10.38,0-17.88-7.45-17.83-17.61,0-10,7.18-17.45,16.62-17.45h.08c8.85,0,15,6.58,15,15.92,0,.81-.05,1.72-.15,2.78l-.08.94-25.54-.11c1,6.22,5.56,10.05,12.22,10.08H921a16.48,16.48,0,0,0,9.93-3.42l1.64-1.19,0,6.7-.49.3A22.41,22.41,0,0,1,920.73,335.89Zm-1.29-33c-8.28,0-14.55,6.61-14.58,15.41,0,9.12,6.45,15.51,15.79,15.55h.08a20.49,20.49,0,0,0,9.76-2.47v-1.6a18.26,18.26,0,0,1-9.58,2.72c-8.1,0-13.74-5.17-14.39-13.07l-.09-1.12,25.91.11c0-.61.06-1.16.07-1.67,0-8.13-5.28-13.83-12.92-13.86Zm11.32,14.43-24.25-.1.17-1.17c1.18-8.16,7.19-11.81,12.63-11.81h.06c5.14,0,11.21,3.19,11.37,12Zm-21.84-2.14,19.72.08c-.7-8.49-7.81-9-9.28-9h-.05C915,306.28,910.29,309,908.92,315.17Z"/><path class="cls-1" d="M993.88,315.27c0-3.47-.49-5.78-2-7.39a7.68,7.68,0,0,0-5.71-2.21c-4.24,0-8.29,2.34-11.33,5.47a25.93,25.93,0,0,1,.18,3.41L975,334.39h-3.79l.08-19.2c0-3.66-.42-5.79-1.89-7.4a7.72,7.72,0,0,0-5.77-2.21c-4.31,0-8.17,2.41-11.14,5.35l-.1,23.37h-3.78l.13-31.6,3.79,0,0,4.3.13.07c3.09-2.81,7-5.05,11.71-5,4,0,8,1.76,9.73,5.88,3.94-3.71,8.12-5.81,12.81-5.79a10.78,10.78,0,0,1,8.07,3.18c1.92,2.07,2.75,4.7,2.73,9.33l-.09,19.84-3.79,0Z"/><path class="cls-1" d="M998.6,335.52l-5.84,0,.09-20.22h0c0-3.38-.49-5.39-1.69-6.7a6.69,6.69,0,0,0-4.95-1.87c-3.45,0-7.13,1.73-10.25,4.82.09.93.13,2,.13,3L976,335.42l-5.84,0,.09-20.23c0-3.56-.43-5.38-1.63-6.7a6.68,6.68,0,0,0-5-1.87h0c-4.17,0-7.73,2.52-10.06,4.75l-.1,24-5.84,0,.14-33.65,5.84,0V305a17.4,17.4,0,0,1,10.73-4h.07c4.45,0,8.11,2,10,5.25,4-3.47,8.08-5.15,12.42-5.15h.07a11.71,11.71,0,0,1,8.83,3.5c2.14,2.32,3,5.22,3,10Zm-3.78-2.07h1.74l.08-18.82c0-4.23-.69-6.73-2.45-8.62a9.72,9.72,0,0,0-7.33-2.85h-.06c-4.16,0-8.1,1.8-12,5.51l-1.08,1-.57-1.37c-2-4.71-6.81-5.24-8.8-5.25h-.06c-3.85,0-7.43,1.56-11,4.76l-.52.47-1.33-.67,0-3.91h-1.74l-.12,29.55h1.73l.1-22.77.3-.3c2.6-2.58,6.76-5.64,11.81-5.64h.05a8.72,8.72,0,0,1,6.51,2.53c1.83,2,2.19,4.59,2.18,8.1l-.08,18.17H974l.08-18.82a27.3,27.3,0,0,0-.17-3.27l-.06-.49.34-.35c3.57-3.69,8-5.76,12.06-5.79a8.63,8.63,0,0,1,6.47,2.55c1.57,1.73,2.24,4.14,2.22,8.09h0Z"/><path class="cls-1" d="M288.09,361.31c13.35.06,23.39,10.63,23.33,24.05s-10.18,23.91-23.54,23.86-23.39-10.64-23.34-24.06S274.73,361.26,288.09,361.31Zm-.19,44.25c11.3,0,19.55-8.91,19.6-20.21S299.37,365,288.07,365s-19.56,8.91-19.61,20.21S276.59,405.51,287.9,405.56Zm-8.32-53.4a2.64,2.64,0,1,1,2.63,2.64A2.6,2.6,0,0,1,279.58,352.16Zm11.82,0a2.63,2.63,0,1,1,2.62,2.64A2.6,2.6,0,0,1,291.4,352.21Z"/><path class="cls-1" d="M288,410.24h-.11a24.11,24.11,0,0,1-17.44-7.33,25.93,25.93,0,0,1,.16-35.44A24.06,24.06,0,0,1,288,360.29h.11c13.72.06,24.42,11.07,24.36,25.08S301.65,410.24,288,410.24Zm0-47.9a22.07,22.07,0,0,0-15.92,6.56,23.89,23.89,0,0,0-.14,32.59,22.1,22.1,0,0,0,16,6.7H288c12.73,0,22.35-9.8,22.41-22.83s-9.54-23-22.32-23Zm0,44.24h-.1a20.08,20.08,0,0,1-14.72-6.29,21.76,21.76,0,0,1-5.73-15.11C267.49,373.06,276.31,364,288,364h.09c11.72.05,20.51,9.25,20.46,21.4S299.65,406.58,288,406.58ZM288,366c-10.5,0-18.45,8.23-18.49,19.19a19.73,19.73,0,0,0,5.18,13.7,18.06,18.06,0,0,0,13.23,5.64H288c10.5,0,18.44-8.23,18.49-19.19S298.61,366,288.07,366Zm6-10.12h0a3.63,3.63,0,0,1-3.65-3.68h0a3.69,3.69,0,0,1,1.08-2.59,3.51,3.51,0,0,1,2.6-1.05,3.62,3.62,0,0,1,3.64,3.67,3.62,3.62,0,0,1-3.66,3.65Zm-1.61-3.67a1.58,1.58,0,0,0,1.6,1.62h0a1.63,1.63,0,0,0,1.14-.46,1.62,1.62,0,0,0-1.13-2.76h0a1.59,1.59,0,0,0-1.14.46,1.64,1.64,0,0,0-.47,1.14Zm-10.2,3.62h0a3.65,3.65,0,0,1-2.59-1.08,3.67,3.67,0,0,1,2.61-6.24h0a3.64,3.64,0,0,1,2.59,1.07,3.68,3.68,0,0,1-2.6,6.25Zm-1.61-3.67a1.61,1.61,0,1,0,2.76-1.13,1.62,1.62,0,0,0-1.15-.47h0a1.57,1.57,0,0,0-1.61,1.6Z"/><path class="cls-1" d="M324.32,402.57A22.69,22.69,0,0,0,336.25,406c5.33,0,8.74-1.83,8.76-5.62,0-4.75-5.25-5.29-10.19-6.08-5.26-.85-11.23-2.42-11.2-8.84,0-6,5.11-9,12.3-9a24.72,24.72,0,0,1,11.36,2.74l0,4a22.08,22.08,0,0,0-11.48-3.26c-4.94,0-8.35,1.7-8.37,5.3,0,4.43,5.12,4.9,9.87,5.69,5.71.92,11.54,2.49,11.52,9.17,0,6.23-5.12,9.42-12.76,9.38a25,25,0,0,1-11.74-2.81Z"/><path class="cls-1" d="M336.16,410.45H336a25.75,25.75,0,0,1-12.24-2.95l-.53-.29,0-6.52,1.58,1a21.6,21.6,0,0,0,11.37,3.22,11.09,11.09,0,0,0,5.83-1.23,3.71,3.71,0,0,0,1.9-3.36c0-3.36-3.19-4.1-8.46-4.93l-.86-.14c-3.93-.63-12.1-2-12.06-9.86a8.9,8.9,0,0,1,3.9-7.59,16.34,16.34,0,0,1,9.43-2.43,25.64,25.64,0,0,1,11.84,2.87l.54.29,0,6.46-1.57-1a20.89,20.89,0,0,0-10.93-3.1,11,11,0,0,0-5.51,1.14,3.43,3.43,0,0,0-1.83,3.13c0,3,3,3.71,7.94,4.51l1.07.17c4.33.7,12.41,2,12.37,10.18C349.79,406.56,344.69,410.45,336.16,410.45ZM325.33,406A24.69,24.69,0,0,0,336,408.4c3.5,0,11.7-.77,11.73-8.37,0-5.35-4.06-7.08-10.66-8.15l-1.05-.17c-4.55-.73-9.7-1.56-9.67-6.54a5.47,5.47,0,0,1,2.83-4.88,12.71,12.71,0,0,1,6.57-1.43,23.34,23.34,0,0,1,10.45,2.52v-1.6a24.26,24.26,0,0,0-10.33-2.34c-3.46,0-6.28.7-8.25,2.07a6.81,6.81,0,0,0-3,5.91c0,5.1,4.11,6.82,10.34,7.83l.84.13c4.8.76,10.23,1.61,10.2,7a5.75,5.75,0,0,1-2.87,5.1,13.42,13.42,0,0,1-6.92,1.53,24,24,0,0,1-10.9-2.64Z"/><path class="cls-1" d="M379.65,408.58a12.42,12.42,0,0,1-5,1,8.78,8.78,0,0,1-6.73-2.73c-1.6-1.87-2.23-4.7-2.21-8.81l.08-17.46-6.3,0,0-3.34,6.29,0,0-8.86,3.79-.63,0,9.51,10.21,0v3.34l-10.21,0-.08,16.82c0,4.75.67,8.67,5.68,8.69a9.12,9.12,0,0,0,4.5-1.13Z"/><path class="cls-1" d="M374.68,410.61h-.05a9.7,9.7,0,0,1-7.5-3.08c-1.73-2-2.48-4.94-2.46-9.48l.07-16.44-6.3,0,0-5.39,6.29,0,0-8.7,5.84-1,0,9.7,10.21,0,0,5.39-10.21,0-.07,15.79a13.61,13.61,0,0,0,.84,5.66c.7,1.38,1.88,2,3.82,2h0a8.24,8.24,0,0,0,3.95-1l1.54-.89,0,6-.59.28A13.41,13.41,0,0,1,374.68,410.61ZM360.5,379.54l6.3,0-.08,18.49c0,4,.59,6.53,2,8.14a7.79,7.79,0,0,0,6,2.36,11.87,11.87,0,0,0,4-.67v-1.32a10.38,10.38,0,0,1-3.43.58h0c-2.7,0-4.59-1.07-5.64-3.14a15.06,15.06,0,0,1-1.06-6.58l.07-17.85,10.21,0v-1.29l-10.21,0,0-9.32-1.74.29,0,9-6.29,0Z"/><path class="cls-1" d="M394.22,394.2c.61,7.45,5.92,12.09,13.37,12.13a17.61,17.61,0,0,0,10.61-3.62l0,4.11a21.36,21.36,0,0,1-10.86,2.91c-9.7,0-16.86-6.75-16.82-16.58s7.14-16.47,15.68-16.43c7.64,0,14,5.51,13.93,14.89,0,1-.07,1.93-.14,2.7Zm22.17-3.06c-.16-8.47-6.12-11-10.36-11-5.26,0-10.61,3.61-11.67,10.93Z"/><path class="cls-1" d="M407.4,410.75h-.09c-10.38,0-17.88-7.45-17.83-17.6,0-10,7.18-17.46,16.62-17.46h.08c8.85,0,15,6.59,15,15.92,0,.82-.05,1.73-.15,2.79l-.08.94-25.54-.11c1,6.21,5.56,10,12.23,10.07h.07a16.5,16.5,0,0,0,9.93-3.42l1.64-1.19,0,6.7-.49.3A22.41,22.41,0,0,1,407.4,410.75Zm-1.29-33c-8.28,0-14.54,6.62-14.58,15.42,0,9.11,6.45,15.5,15.79,15.54a20.35,20.35,0,0,0,9.84-2.47v-1.6a17.79,17.79,0,0,1-9.58,2.72c-8.1,0-13.74-5.16-14.39-13.07l-.09-1.12,25.91.12c0-.61.06-1.17.07-1.67,0-8.13-5.28-13.83-12.92-13.87Zm11.32,14.43-24.25-.1.17-1.17c1.18-8.19,7.2-11.81,12.69-11.81,5.14,0,11.21,3.19,11.38,12ZM395.59,390l19.72.08c-.7-8.48-7.81-9-9.28-9C401.71,381.1,397,383.88,395.59,390Z"/><path class="cls-1" d="M435.39,377.55h3.79l0,5.14.12.07a12.91,12.91,0,0,1,10.24-5.48,8.16,8.16,0,0,1,1.86.2l0,3.66a9.31,9.31,0,0,0-2-.2c-4.3,0-7.65,2.28-10.23,6.12l-.1,22.09-3.79,0Z"/><path class="cls-1" d="M440.06,410.19l-5.84,0,.15-33.64,5.84,0,0,3.65a13.4,13.4,0,0,1,9.28-3.93h0a9.3,9.3,0,0,1,2.09.23l.8.18,0,5.76-1.24-.28a9.11,9.11,0,0,0-1.77-.18h-.05c-3.63,0-6.63,1.77-9.16,5.42Zm-3.77-2.07H438l.09-21.38.18-.25c2.93-4.37,6.64-6.58,11-6.58h.06c.33,0,.65,0,1,0v-1.6a7.26,7.26,0,0,0-.83-.05h0a11.89,11.89,0,0,0-9.37,5.07l-.51.69-1.46-.74,0-4.75h-1.74Z"/><path class="cls-1" d="M464.09,377.67l3.79,0,0,5.13.13.07a12.88,12.88,0,0,1,10.23-5.48,8.25,8.25,0,0,1,1.87.2l0,3.66a9.38,9.38,0,0,0-2-.2c-4.3,0-7.65,2.28-10.24,6.12l-.09,22.09-3.79,0Z"/><path class="cls-1" d="M468.77,410.31l-5.84,0,.14-33.65,5.84,0v3.64a13.39,13.39,0,0,1,9.28-3.93h.05a9.74,9.74,0,0,1,2.08.23l.8.18,0,5.77-1.25-.29a8.3,8.3,0,0,0-1.77-.17c-3.62,0-6.66,1.75-9.2,5.41ZM465,408.24h1.74l.09-21.37.17-.26c2.94-4.36,6.65-6.58,11-6.58h.05l1,0v-1.6a7.51,7.51,0,0,0-.84,0h0a11.83,11.83,0,0,0-9.37,5.07l-.51.68-1.47-.73,0-4.75h-1.73Z"/><path class="cls-1" d="M493.37,394.62c.61,7.45,5.92,12.1,13.37,12.13a17.6,17.6,0,0,0,10.61-3.61l0,4.1a21.32,21.32,0,0,1-10.86,2.91c-9.7,0-16.86-6.75-16.82-16.57s7.13-16.48,15.67-16.44c7.64,0,14,5.52,13.94,14.89,0,1-.07,1.93-.14,2.7Zm22.17-3.05c-.16-8.48-6.12-11-10.36-11-5.27,0-10.61,3.62-11.67,10.93Z"/><path class="cls-1" d="M506.55,411.18h-.09a18.26,18.26,0,0,1-12.77-4.91,17.34,17.34,0,0,1-5.07-12.7,17.87,17.87,0,0,1,4.95-12.6,16.21,16.21,0,0,1,11.76-4.85,14.8,14.8,0,0,1,10.57,4.24A16,16,0,0,1,520.28,392c0,.81,0,1.72-.14,2.78l-.08.94-25.54-.11c1,6.22,5.56,10,12.22,10.07h.07a16.5,16.5,0,0,0,9.94-3.41l1.63-1.19,0,6.7-.48.3A22.44,22.44,0,0,1,506.55,411.18Zm-1.3-33A14.22,14.22,0,0,0,495,382.4a15.88,15.88,0,0,0-4.36,11.18,15.15,15.15,0,0,0,4.45,11.22,16.24,16.24,0,0,0,11.35,4.33h.08a20.6,20.6,0,0,0,9.76-2.47v-1.61a17.61,17.61,0,0,1-9.58,2.72c-8.09,0-13.74-5.16-14.38-13.07l-.1-1.11,25.92.11c0-.61.06-1.16.06-1.67a14,14,0,0,0-3.79-10.22,12.74,12.74,0,0,0-9.12-3.64Zm11.33,14.43-24.25-.11.16-1.16c1.19-8.17,7.19-11.81,12.64-11.81h.05c5.15,0,11.22,3.18,11.38,12Zm-21.84-2.15,19.72.09c-.7-8.49-7.81-9-9.28-9h-.05C500.83,381.57,496.11,384.32,494.74,390.45Z"/><path class="cls-1" d="M536.43,369.89a2.92,2.92,0,1,1,3-2.88A2.89,2.89,0,0,1,536.43,369.89ZM534.54,378l3.79,0-.14,31.59H534.4Z"/><path class="cls-1" d="M539.21,410.61l-5.84,0,.15-33.65,5.84,0Zm-3.78-2.07h1.74l.12-29.54h-1.73Zm1-37.63h0a3.86,3.86,0,0,1-2.77-1.16,4,4,0,0,1-1.13-2.83,3.87,3.87,0,0,1,1.17-2.77,4.17,4.17,0,0,1,2.83-1.13,3.95,3.95,0,0,1-.08,7.89Zm0-2.05h0a1.9,1.9,0,0,0,.07-3.79,1.86,1.86,0,0,0-1.94,1.86,2,2,0,0,0,.54,1.38,1.82,1.82,0,0,0,1.32.55Z"/><path class="cls-1" d="M579.29,408.09a19,19,0,0,1-9.45,2.33c-9.82,0-16.66-7.07-16.62-16.44,0-9.57,7.26-16.6,17.09-16.56a18.85,18.85,0,0,1,8.59,2.09v4a16.45,16.45,0,0,0-8.73-2.6c-7.83,0-13.12,5.66-13.15,13.1s5.4,12.93,13,13a15,15,0,0,0,9.26-3Z"/><path class="cls-1" d="M569.94,411.45h-.1c-10.27-.05-17.69-7.39-17.65-17.48s7.67-17.61,18.12-17.58a20.08,20.08,0,0,1,9.07,2.21l.55.29,0,6.45-1.56-1a15.39,15.39,0,0,0-8.18-2.45h-.07a11.87,11.87,0,0,0-8.7,3.44A12.34,12.34,0,0,0,558,394c0,7,4.92,11.9,12,11.93h.06a14,14,0,0,0,8.56-2.76l1.67-1.3,0,6.81-.51.29A19.94,19.94,0,0,1,569.94,411.45Zm.28-33c-9.23,0-15.94,6.53-16,15.54s6.53,15.38,15.61,15.42h.08a18.49,18.49,0,0,0,8.34-1.92V405.9a16.55,16.55,0,0,1-8.16,2.08h-.07c-8.19,0-14.1-5.92-14.07-14a14.31,14.31,0,0,1,3.95-10.07,14,14,0,0,1,10.17-4.06h.07a17.09,17.09,0,0,1,7.7,1.88v-1.6a18.11,18.11,0,0,0-7.58-1.7Z"/><path class="cls-1" d="M594.91,360.76l3.79,0-.1,21.9.13.06a17.74,17.74,0,0,1,12.16-5.15,10.69,10.69,0,0,1,8.08,3.25c1.91,2.06,2.8,4.76,2.78,9.45l-.08,19.65-3.79,0L618,391c0-4-.55-6-2-7.59a7.32,7.32,0,0,0-5.71-2.27c-4.43,0-8.49,2.34-11.65,5.6l-.1,23.12-3.78,0Z"/><path class="cls-1" d="M622.69,411l-5.84,0,.08-20c0-3.66-.45-5.53-1.74-6.88a6.31,6.31,0,0,0-5-2h-.05c-3.59,0-7.33,1.77-10.57,5l-.1,23.72-5.84,0,.22-51.11,5.84,0-.09,20.86a18.11,18.11,0,0,1,11.18-4.05h.07a11.73,11.73,0,0,1,8.83,3.57c2.16,2.33,3.08,5.37,3.06,10.15Zm-3.78-2.07h1.74l.07-18.62c0-4.28-.7-6.82-2.5-8.75a9.61,9.61,0,0,0-7.34-2.92h-.06a16.94,16.94,0,0,0-11.39,4.87l-.53.49-1.33-.67.1-21.51h-1.74l-.2,47h1.73l.1-22.5.29-.3c3.69-3.82,8.07-5.91,12.33-5.91h.06a8.39,8.39,0,0,1,6.46,2.6c1.66,1.75,2.3,4.08,2.28,8.28Z"/><path class="cls-1" d="M156.21,84.26a117.87,117.87,0,0,0-43.27-6C79.54,80,56,95.74,46.32,103.05c-6.72,9.43-13.5,19.46-20.25,30.1C16.27,148.59,7.63,163.59,0,177.91a188.43,188.43,0,0,1,31.9-10.86c18.6-4.71,42.52-8,63.79-2.17q16.92-22.22,33.88-44.84Q143,102.1,156.21,84.26Z"/><path class="cls-1" d="M224.21,152.91a119,119,0,0,0-101.3,7.16,255.62,255.62,0,0,0-46.21,79.2,185.12,185.12,0,0,1,32.15-8.47c13.82-2.33,27.85-4.55,44.81-.38A83.51,83.51,0,0,1,166,234.5q15.58-20.48,31.36-42.65Q211.43,172.11,224.21,152.91Z"/><path class="cls-1" d="M285.15,220.05a118.13,118.13,0,0,0-37.76-6.25A119.62,119.62,0,0,0,193,227a200.16,200.16,0,0,0-41.2,78.29,161.71,161.71,0,0,1,33.78-7.52c9.8-1.09,20.09-2.15,33,.78a81.33,81.33,0,0,1,10.05,3,227.67,227.67,0,0,0,16.59-20c7.34-10,11.31-17.07,17.62-27.37C267.85,246,275.3,234.25,285.15,220.05Z"/><path class="cls-2" d="M69.34,44.26l9.34-14.59A601.86,601.86,0,0,1,271.35.9,770.25,770.25,0,0,0,124.83,157.33c-30.47,43.35-55.26,95.22-72,131.7l-19.23-3.31C55.34,241,84,174,127.54,118.75a843.19,843.19,0,0,1,94.55-101.6S143.67,26,69.34,44.26Z"/><path class="cls-2" d="M177.8,90.27a138.69,138.69,0,0,1,10.13-12.13c3.19-3.39,6.32-6.4,9.32-9A524.39,524.39,0,0,1,341.93,54.29,699.47,699.47,0,0,0,124.69,375.78l-16.84-2.93a537.57,537.57,0,0,1,24.78-72.48c34.83-82.22,82.64-137.83,116.18-176.23C269.89,100,288.41,81.53,300.39,70A534.63,534.63,0,0,0,177.8,90.27Z"/><path class="cls-2" d="M247.92,149.4c2.38-3.31,5.05-6.79,8.07-10.36,3.17-3.76,6.32-7.14,9.33-10.16a505.07,505.07,0,0,1,67-11.75,525.47,525.47,0,0,1,76.31-2.73A699.47,699.47,0,0,0,191.39,435.89L174.55,433a537.57,537.57,0,0,1,24.78-72.48C234.16,278.26,282,222.65,315.51,184.25c21.08-24.14,39.6-42.61,51.58-54.13a535.44,535.44,0,0,0-60,6.25A480.93,480.93,0,0,0,247.92,149.4Z"/><path class="cls-3" d="M122.42,214.19c.49-.18,1.18-.43,2-.68a25.44,25.44,0,0,1,2.87-.74,14.11,14.11,0,0,1,4.48,0l31.43-50.06a10.26,10.26,0,0,0-8.41.42Z"/><path class="cls-3" d="M50.6,146.87,84.26,93.71a10.66,10.66,0,0,1,4.43-1.1,10.52,10.52,0,0,1,4,.69L66.47,135s11.19-4.63,33.06.75L97,143.12c-4.55-1-15.09-3-26-1.6a97.8,97.8,0,0,0-14.53,3.31C54.05,145.58,52.06,146.31,50.6,146.87Z"/><path class="cls-3" d="M209.14,233.17c-.2-1.85,1.94-3.64,3.85-3.93a2.36,2.36,0,0,1,2,.38,1.87,1.87,0,0,1,.56,1.19,2.88,2.88,0,0,1-.72,2.07c-1.21,1.57-3.82,2.6-5,1.61A2,2,0,0,1,209.14,233.17Z"/><path class="cls-3" d="M229,231.12c-.45-1.88,1.72-3.78,3.08-4.59.71-.42,2.49-1.48,3.93-.71a2.52,2.52,0,0,1,1.17,1.38c.41,1.31-.59,2.59-1,3.07-1.61,2-4.92,3.29-6.46,2A2.17,2.17,0,0,1,229,231.12Z"/><path class="cls-3" d="M240.21,245.17a14.81,14.81,0,0,0-3.65-5.42c-6.1-5.62-15.64-4-19-3.4-20.19,3.47-39.45,27-34.73,41.2a15.12,15.12,0,0,0,5.27,7.14c10.11,7.49,26.53-.94,28.82-2.11C232.53,274.55,244.33,256.29,240.21,245.17Zm-24.44,32c-1.7.86-13.92,7.07-21.42,1.57a11.13,11.13,0,0,1-3.91-5.25c-3.5-10.46,10.83-27.75,25.84-30.31,2.52-.43,9.61-1.64,14.15,2.49a10.92,10.92,0,0,1,2.71,4C236.19,257.83,227.41,271.27,215.77,277.18Z"/></svg>