<?xml version="1.0" encoding="UTF-8"?>
<svg id="Layer_1" data-name="Layer 1" xmlns="http://www.w3.org/2000/svg" viewBox="0 0 170.08 85.04">
  <defs>
    <style>
      .cls-1 {
        fill: #0047bb;
      }
    </style>
  </defs>
  <rect class="cls-1" x="88.98" y="14.17" width="66.76" height="3.1"/>
  <rect class="cls-1" x="14.34" y="67.76" width="74.64" height="3.1"/>
  <polygon class="cls-1" points="65.07 55.35 66.1 55.35 71.59 41.84 71.72 41.84 77.21 55.35 78.23 55.35 84.32 32.8 81.23 32.8 77.25 47.59 77.08 47.59 72.23 35.88 71.08 35.88 66.23 47.59 66.06 47.59 62.07 32.8 58.99 32.8 65.07 55.35"/>
  <path class="cls-1" d="M51.95,32.8h-1.11l-10.03,22.55h3.39l2.14-4.84h10.12l2.14,4.84h3.39l-10.03-22.55ZM47.47,47.8l3.82-8.7h.17l3.82,8.7h-7.8Z"/>
  <path class="cls-1" d="M33.87,30.57c1.2,0,2.1-.9,2.1-2.1s-.9-2.14-2.1-2.14-2.1.94-2.1,2.14.9,2.1,2.1,2.1Z"/>
  <path class="cls-1" d="M26.76,30.57c1.2,0,2.1-.9,2.1-2.1s-.9-2.14-2.1-2.14-2.1.94-2.1,2.14.9,2.1,2.1,2.1Z"/>
  <path class="cls-1" d="M30.31,32.54c-6.37,0-11.31,5.03-11.31,11.57s4.94,11.49,11.31,11.49,11.31-4.99,11.31-11.49-4.94-11.57-11.31-11.57ZM30.31,52.44c-4.67,0-8.24-3.62-8.24-8.33s3.58-8.42,8.24-8.42,8.24,3.66,8.24,8.42-3.58,8.33-8.24,8.33Z"/>
  <g>
    <path class="cls-1" d="M95.46,32.39s.1.08.16.11c.06.03.13.04.19.04.07,0,.14-.01.21-.04.06-.03.12-.06.17-.11.05-.05.09-.1.12-.16.03-.06.04-.13.04-.2s-.01-.14-.04-.2c-.03-.06-.07-.12-.12-.17-.05-.05-.11-.09-.17-.11-.12-.06-.27-.06-.4,0-.06.03-.12.07-.16.12-.05.05-.08.1-.11.17-.03.07-.04.13-.04.2s.01.14.04.2c.03.06.07.12.11.16Z"/>
    <path class="cls-1" d="M94.62,37.58c.24.25.54.45.88.59.34.14.72.21,1.13.21s.79-.07,1.13-.21c.34-.14.63-.34.88-.59.24-.25.43-.55.57-.89.13-.34.2-.72.2-1.12s-.07-.77-.2-1.11c-.13-.34-.32-.64-.57-.89-.24-.25-.54-.45-.88-.59-.34-.14-.72-.21-1.13-.21s-.79.07-1.13.21c-.34.14-.64.34-.88.59-.24.25-.43.55-.57.89-.13.34-.2.72-.2,1.11s.07.77.2,1.12c.13.34.32.64.57.89ZM96.63,33.68c.26,0,.5.04.71.13.21.09.39.21.53.37.15.16.26.36.34.6.08.23.12.5.12.8s-.04.56-.12.8c-.08.23-.19.43-.34.59-.15.16-.32.29-.53.37-.21.09-.45.13-.71.13s-.5-.04-.71-.13c-.21-.09-.39-.21-.54-.37-.15-.16-.26-.36-.34-.59-.08-.23-.12-.5-.12-.8s.04-.56.12-.8c.08-.23.19-.43.34-.6.15-.16.33-.29.54-.37.21-.09.45-.13.71-.13Z"/>
    <path class="cls-1" d="M97.08,32.39s.1.08.17.11c.06.03.13.04.2.04s.14-.01.2-.04c.06-.03.12-.06.17-.11.05-.05.08-.1.11-.16.03-.06.04-.13.04-.2s-.01-.14-.04-.2c-.03-.06-.07-.12-.11-.17-.05-.05-.1-.09-.17-.12-.12-.06-.28-.06-.41,0-.06.03-.12.07-.17.11-.05.05-.09.1-.11.17-.03.07-.04.13-.04.2s.01.14.04.2c.03.06.07.12.11.16Z"/>
    <path class="cls-1" d="M101.94,37.54s-.11.07-.19.1c-.08.03-.17.04-.28.04-.14,0-.25-.02-.34-.05-.09-.03-.17-.07-.24-.1-.07-.04-.13-.07-.18-.1-.05-.03-.11-.05-.17-.05s-.11.01-.15.04c-.04.02-.08.06-.1.1l-.22.37h.01c.08.08.16.14.26.2.1.06.21.11.33.15.12.04.24.08.37.1.13.02.26.04.39.04.25,0,.47-.03.67-.1.19-.07.36-.16.49-.27.13-.12.23-.26.3-.41.07-.16.1-.33.1-.52,0-.16-.03-.3-.08-.41-.06-.11-.13-.21-.22-.29-.09-.08-.19-.15-.31-.2-.11-.05-.23-.1-.35-.14-.12-.04-.24-.08-.35-.11-.11-.03-.21-.07-.3-.11-.09-.04-.16-.09-.21-.14-.05-.05-.08-.12-.08-.19,0-.12.05-.21.15-.29.1-.07.24-.11.42-.11.12,0,.22.01.3.04.08.02.16.05.23.08s.13.06.18.08c.05.03.11.04.15.04s.09,0,.12-.03c.03-.02.06-.05.09-.09l.22-.35h-.01c-.15-.16-.33-.27-.55-.36-.22-.09-.47-.13-.73-.13-.24,0-.45.03-.64.1-.18.06-.34.15-.46.26-.12.11-.22.24-.28.38-.06.15-.1.3-.1.46,0,.17.03.32.08.44.06.12.13.23.22.31.09.08.19.15.31.21.12.05.24.1.35.14.13.04.24.08.35.11.11.03.21.07.3.11.09.04.16.09.21.15.05.05.08.12.08.21,0,.06-.01.11-.03.17-.02.05-.06.1-.11.14Z"/>
    <path class="cls-1" d="M104.22,37.29c0,.34.09.61.28.8.18.19.45.29.79.29.19,0,.38-.03.55-.09.18-.06.34-.15.47-.26h.01s-.29-.48-.29-.48c-.02-.03-.04-.05-.06-.07-.04-.03-.1-.04-.16,0-.02.01-.05.03-.08.04-.03.01-.06.03-.1.04-.04.01-.08.02-.14.02-.09,0-.17-.03-.23-.09-.06-.06-.09-.15-.09-.27v-2.07h1.02v-.7h-1.02v-1.21h-.5c-.06,0-.11.02-.15.05-.04.03-.07.07-.08.13l-.19,1.04-.62.1v.39c0,.07.02.13.06.16.04.04.09.05.14.05h.37v2.13Z"/>
    <path class="cls-1" d="M108.87,38.37c.14,0,.28-.01.42-.03.14-.02.29-.06.43-.1.14-.05.28-.12.4-.2.13-.08.25-.18.35-.31h.01s-.28-.36-.28-.36c-.02-.03-.05-.05-.08-.07-.03-.02-.07-.03-.11-.03-.06,0-.12.02-.19.06-.05.03-.12.07-.21.12-.08.04-.18.08-.28.12-.11.03-.24.05-.38.05-.3,0-.54-.09-.72-.27-.18-.18-.28-.46-.31-.84h2.36s.08,0,.11-.02c.03-.01.06-.03.08-.06.02-.03.03-.07.04-.12,0-.05,0-.11,0-.18,0-.28-.04-.53-.13-.75-.08-.22-.2-.41-.35-.56-.15-.15-.33-.27-.54-.35s-.43-.12-.68-.12c-.29,0-.55.05-.78.15-.23.1-.43.24-.59.41-.16.17-.28.38-.37.61-.09.23-.13.49-.13.75,0,.34.05.64.15.9.1.26.24.48.41.65.17.18.38.31.61.4.23.09.49.13.76.13ZM107.94,35.9c.04-.26.14-.47.28-.62.15-.15.36-.22.62-.22.13,0,.25.02.35.07.1.05.18.11.25.18.07.08.11.17.15.27.03.1.05.2.05.31h-1.7Z"/>
    <path class="cls-1" d="M112.5,35.9c.09-.2.21-.35.34-.46.13-.1.3-.16.48-.16.11,0,.19,0,.25.03.07.02.12.03.16.03.05,0,.09-.01.11-.03.03-.02.05-.06.06-.11l.12-.7h0s-.01-.02-.01-.02c-.13-.09-.29-.13-.49-.13-.23,0-.45.07-.64.21-.17.13-.33.3-.46.52l-.05-.41c-.01-.09-.04-.15-.08-.19-.04-.04-.11-.06-.21-.06h-.57v3.9h.97v-2.42Z"/>
    <path class="cls-1" d="M115.87,35.9c.09-.2.21-.35.34-.46.13-.1.3-.16.48-.16.11,0,.19,0,.25.03.07.02.12.03.16.03.05,0,.09-.01.11-.03.03-.02.05-.06.06-.11l.12-.7h0s-.01-.02-.01-.02c-.13-.09-.29-.13-.49-.13-.23,0-.45.07-.64.21-.17.13-.33.3-.46.52l-.05-.41c-.01-.09-.04-.15-.08-.19-.04-.04-.11-.06-.21-.06h-.57v3.9h.97v-2.42Z"/>
    <path class="cls-1" d="M118.57,37.84c.17.18.38.31.61.4.23.09.49.13.76.13.14,0,.28-.01.42-.03.14-.02.29-.06.43-.1.14-.05.28-.12.4-.2.13-.08.25-.18.35-.31h.01s-.28-.36-.28-.36c-.02-.03-.05-.05-.08-.07-.03-.02-.07-.03-.11-.03-.06,0-.12.02-.19.06-.05.03-.12.07-.21.12-.08.04-.18.08-.28.12-.11.03-.24.05-.38.05-.3,0-.54-.09-.72-.27-.18-.18-.28-.46-.31-.84h2.36s.08,0,.11-.02c.03-.01.06-.03.08-.06.02-.03.03-.07.04-.12,0-.05,0-.11,0-.18,0-.28-.04-.53-.13-.75-.08-.22-.2-.41-.35-.56-.15-.15-.33-.27-.54-.35s-.43-.12-.68-.12c-.29,0-.55.05-.78.15-.23.1-.43.24-.59.41-.16.17-.28.38-.37.61-.09.23-.13.49-.13.75,0,.34.05.64.15.9.1.26.24.48.41.65ZM119.01,35.9c.04-.26.14-.47.28-.62.15-.15.36-.22.62-.22.13,0,.25.02.35.07.1.05.18.11.25.18.07.08.11.17.15.27.03.1.05.2.05.31h-1.7Z"/>
    <rect class="cls-1" x="122.66" y="34.41" width=".97" height="3.9"/>
    <path class="cls-1" d="M123.58,32.88c-.06-.05-.12-.1-.2-.13-.08-.03-.16-.05-.24-.05s-.16.02-.24.05c-.07.03-.14.08-.19.13-.05.05-.1.12-.13.19-.03.07-.05.16-.05.24s.02.16.05.23c.03.07.08.14.13.19.05.05.12.1.19.13.08.03.15.05.24.05s.17-.02.24-.05c.08-.03.14-.08.2-.13.06-.06.1-.12.13-.19.03-.07.05-.15.05-.23s-.02-.17-.05-.24c-.03-.07-.08-.14-.13-.19Z"/>
    <path class="cls-1" d="M125.19,37.84c.16.17.35.3.56.39.21.09.44.14.68.14.14,0,.28-.01.41-.03.14-.02.28-.06.41-.1.13-.05.26-.12.38-.2.12-.08.24-.19.34-.31h.01s-.28-.36-.28-.36c-.04-.06-.1-.1-.19-.1-.06,0-.12.02-.17.06-.04.03-.09.07-.16.12-.06.04-.14.08-.23.12-.09.04-.2.05-.35.05s-.28-.03-.39-.08c-.11-.05-.21-.14-.29-.24-.08-.11-.14-.24-.19-.4-.04-.16-.06-.34-.06-.54s.02-.38.06-.53c.04-.15.1-.29.18-.39.08-.11.18-.19.3-.25.12-.06.26-.09.42-.09.13,0,.23.01.32.04.08.03.16.06.22.1.06.04.12.07.16.1.05.03.1.05.15.05.05,0,.1-.01.13-.03.03-.02.06-.05.08-.09l.26-.35h-.01c-.17-.19-.37-.32-.59-.42-.22-.09-.48-.14-.77-.14s-.58.05-.81.15c-.24.1-.44.24-.59.42-.16.18-.28.39-.36.63-.08.24-.12.51-.12.79,0,.32.05.6.14.85.09.25.22.46.38.63Z"/>
    <path class="cls-1" d="M129.79,35.51c.12-.12.25-.22.39-.29.14-.07.29-.11.44-.11.21,0,.37.06.47.19.11.13.16.3.16.53v2.48h.97v-2.48c0-.22-.03-.42-.09-.6-.06-.18-.14-.34-.25-.47-.11-.13-.25-.23-.42-.31-.17-.07-.36-.11-.57-.11-.24,0-.46.04-.64.13-.17.08-.33.19-.47.32v-2.12h-.97v5.63h.97v-2.8Z"/>
    <rect class="cls-1" x="133.46" y="34.41" width=".97" height="3.9"/>
    <path class="cls-1" d="M133.52,33.74c.05.05.12.1.19.13.08.03.15.05.24.05s.17-.02.24-.05c.08-.03.14-.08.2-.13.06-.06.1-.12.13-.19.03-.07.05-.15.05-.23s-.02-.17-.05-.24c-.03-.07-.08-.14-.13-.19-.06-.05-.12-.1-.2-.13-.08-.03-.16-.05-.24-.05s-.16.02-.24.05c-.07.03-.14.08-.19.13-.05.05-.1.12-.13.19-.03.07-.05.16-.05.24s.02.16.05.23c.03.07.08.14.13.19Z"/>
    <path class="cls-1" d="M137.43,38.28c.19-.06.36-.16.49-.27s.23-.25.3-.41c.07-.16.1-.33.1-.52,0-.16-.03-.29-.08-.41-.06-.11-.13-.21-.22-.29-.09-.08-.19-.15-.31-.2-.11-.05-.23-.1-.35-.14-.12-.04-.24-.08-.35-.11-.11-.03-.21-.07-.3-.11-.09-.04-.16-.09-.21-.14-.05-.05-.08-.12-.08-.19,0-.12.05-.21.15-.29.1-.07.24-.11.42-.11.12,0,.22.01.3.04.09.02.16.05.23.08.07.03.13.06.18.08.05.03.11.04.15.04s.08,0,.12-.03c.03-.02.06-.05.09-.09l.22-.35h-.01c-.15-.16-.33-.27-.55-.36-.22-.09-.47-.13-.73-.13-.24,0-.45.03-.64.1-.18.06-.34.15-.46.26-.12.11-.22.24-.28.38-.06.15-.1.3-.1.46,0,.17.03.32.08.44.06.12.13.23.22.31.09.08.19.15.31.21.11.05.23.1.35.14.13.04.24.08.35.11.11.03.21.07.3.11.09.04.16.09.21.15.05.05.08.12.08.21,0,.06-.01.11-.03.17-.02.05-.06.1-.11.14-.05.04-.11.07-.19.1-.08.03-.17.04-.28.04-.14,0-.25-.02-.34-.05-.09-.03-.17-.07-.24-.1-.06-.03-.12-.07-.18-.1-.06-.03-.11-.05-.17-.05s-.11.01-.15.04c-.04.02-.08.06-.11.1l-.22.37h.01c.08.08.16.14.26.2.1.06.21.11.33.15.12.04.24.08.37.1.13.02.26.04.39.04.25,0,.47-.03.67-.1Z"/>
    <path class="cls-1" d="M139.58,37.84c.16.17.35.3.56.39.21.09.44.14.68.14.14,0,.28-.01.41-.03.14-.02.28-.06.41-.1.13-.05.26-.12.38-.2.12-.08.24-.19.34-.31h.01s-.28-.36-.28-.36c-.04-.06-.1-.1-.19-.1-.06,0-.12.02-.17.06-.04.03-.09.07-.16.12-.06.04-.14.08-.23.12-.09.04-.2.05-.35.05s-.28-.03-.39-.08c-.11-.05-.21-.14-.29-.24-.08-.11-.14-.24-.19-.4-.04-.16-.06-.34-.06-.54s.02-.38.06-.53c.04-.15.1-.29.18-.39.08-.11.18-.19.3-.25.12-.06.26-.09.42-.09.13,0,.23.01.32.04.08.03.16.06.22.1.06.04.12.07.16.1.05.03.1.05.15.05.05,0,.1-.01.13-.03.03-.02.06-.05.08-.09l.26-.35h-.01c-.17-.19-.37-.32-.59-.42-.22-.09-.48-.14-.77-.14s-.58.05-.81.15c-.24.1-.44.24-.59.42-.16.18-.28.39-.36.63-.08.24-.12.51-.12.79,0,.32.05.6.14.85.09.25.22.46.38.63Z"/>
    <path class="cls-1" d="M146.28,34.77c-.11-.13-.25-.23-.42-.31-.17-.07-.36-.11-.57-.11-.24,0-.46.04-.64.13-.17.08-.32.19-.47.32v-2.12h-.97v5.63h.97v-2.8c.12-.12.25-.22.39-.29.14-.07.29-.11.44-.11.21,0,.37.06.48.19.11.12.16.3.16.53v2.48h.97v-2.48c0-.22-.03-.42-.09-.6-.06-.18-.14-.34-.25-.47Z"/>
    <path class="cls-1" d="M150.98,36.48s.06-.03.08-.06c.02-.03.03-.07.04-.12,0-.05,0-.11,0-.18,0-.28-.04-.53-.13-.75-.08-.22-.2-.41-.35-.56-.15-.15-.33-.27-.54-.35s-.43-.12-.68-.12c-.29,0-.55.05-.78.15-.23.1-.43.24-.59.41-.16.17-.29.38-.37.61-.09.23-.13.48-.13.75,0,.34.05.64.15.9.1.26.24.48.41.65.17.18.38.31.61.4.23.09.49.13.76.13.14,0,.28-.01.42-.03.15-.02.29-.06.43-.1.14-.05.28-.12.41-.2.13-.08.25-.19.35-.31h.01s-.28-.36-.28-.36c-.02-.03-.05-.05-.08-.07-.08-.04-.19-.03-.3.03-.06.03-.13.07-.21.12-.08.04-.18.08-.28.12-.11.03-.24.05-.38.05-.3,0-.54-.09-.72-.27-.18-.18-.28-.46-.31-.84h2.36s.08,0,.11-.02ZM148.52,35.9c.04-.26.14-.47.28-.62.15-.15.36-.22.62-.22.13,0,.25.02.35.07.1.04.18.11.25.18.07.08.11.17.15.27.03.1.05.21.05.31h-1.7Z"/>
    <path class="cls-1" d="M94.66,46.77c.06-.05.1-.11.13-.17l.4-1.1h2.22l.4,1.1c.03.07.07.13.13.17.06.05.14.07.23.07h.81l-2.15-5.47h0s-1.06-.01-1.06-.01l-2.14,5.45v.03s.81,0,.81,0c.09,0,.17-.03.23-.08ZM96.21,42.69c.03-.09.06-.19.08-.29.03.1.06.2.09.28.04.11.07.21.1.28l.65,1.78h-1.67l.65-1.77c.03-.08.07-.18.1-.29Z"/>
    <path class="cls-1" d="M102.49,46.84h.88l-1.31-1.9c-.04-.05-.08-.11-.12-.16-.03-.04-.07-.08-.12-.12.04-.03.09-.06.13-.1.05-.05.09-.1.13-.15l1.2-1.43.03-.03h-.89c-.08,0-.15.02-.2.05-.05.03-.1.07-.14.12l-.96,1.18s-.07.08-.11.09c-.03.02-.08.02-.14.02h-.15v-3.2h-.97v5.63h.97v-1.77h.19c.07,0,.13,0,.16.02.03.02.07.05.1.11l.98,1.46c.04.06.09.11.14.14.05.03.12.04.19.04Z"/>
    <path class="cls-1" d="M106.87,43.3c-.12-.13-.28-.24-.46-.31-.18-.07-.38-.11-.61-.11-.63,0-1.17.21-1.62.61h-.01s.18.32.18.32c.03.05.07.09.11.13.05.03.11.05.17.05.08,0,.15-.02.22-.06.06-.04.13-.07.21-.12.07-.04.16-.08.26-.12.1-.03.22-.05.37-.05.2,0,.36.06.46.18.11.12.16.31.16.56v.21c-.43,0-.79.04-1.09.11-.3.08-.54.17-.72.29-.18.12-.31.25-.39.39-.08.15-.12.29-.12.44,0,.18.03.33.08.46.06.13.14.25.24.34.1.09.22.16.36.2.14.04.29.07.46.07.14,0,.27-.01.38-.03.12-.02.22-.06.32-.1.1-.05.2-.1.29-.17.09-.06.17-.13.26-.21l.07.24c.03.09.07.14.12.17.05.03.13.04.22.04h.44v-2.46c0-.22-.03-.43-.1-.61-.06-.19-.16-.35-.28-.48ZM106.3,45.21v.62c-.06.06-.13.12-.19.17-.07.05-.13.09-.2.13-.07.03-.14.06-.22.08-.08.02-.16.03-.26.03-.15,0-.27-.03-.37-.1-.09-.07-.14-.18-.14-.34,0-.08.02-.15.07-.22.04-.07.12-.13.23-.18.11-.05.25-.1.43-.13.18-.03.4-.05.65-.05Z"/>
    <path class="cls-1" d="M111.75,41.21h-.97v2.01c-.11-.1-.24-.18-.38-.25-.15-.07-.34-.11-.56-.11-.26,0-.49.05-.69.15-.2.1-.38.25-.53.43-.15.18-.26.4-.34.65-.08.25-.12.52-.12.8,0,.32.04.6.1.85.07.25.17.46.3.63.13.17.28.3.46.39.18.09.38.13.59.13.14,0,.26-.01.38-.04.12-.03.23-.07.33-.12.1-.05.2-.12.29-.19.08-.06.15-.14.23-.22l.07.33c.04.12.13.18.26.18h.59v-5.63ZM110.78,43.96v1.71c-.12.14-.24.25-.37.33-.13.08-.29.12-.48.12-.12,0-.22-.02-.32-.06-.09-.04-.17-.11-.24-.21-.07-.1-.12-.22-.15-.38-.04-.16-.05-.35-.05-.57s.02-.42.06-.58c.04-.16.1-.3.18-.4.08-.1.17-.18.28-.23.11-.05.24-.08.37-.08s.27.03.39.08c.12.05.23.14.33.26Z"/>
    <path class="cls-1" d="M116.29,46.25l-.28-.35s-.05-.05-.08-.07c-.08-.04-.19-.03-.3.03-.06.03-.13.07-.21.12-.08.04-.18.08-.28.12-.11.03-.24.05-.38.05-.3,0-.54-.09-.72-.27-.18-.18-.28-.46-.31-.84h2.36s.08,0,.11-.02c.03-.01.06-.03.08-.06.02-.03.03-.07.04-.12,0-.05,0-.11,0-.18,0-.28-.04-.53-.13-.75-.08-.22-.2-.41-.35-.56-.15-.15-.33-.27-.54-.35s-.43-.12-.68-.12c-.29,0-.55.05-.78.15-.23.1-.43.24-.59.41-.16.17-.29.38-.37.61-.09.23-.13.48-.13.75,0,.34.05.64.15.9.1.26.24.48.41.65.17.18.38.31.61.4.23.09.49.13.76.13.14,0,.28-.01.42-.03.15-.02.29-.06.43-.1.14-.05.28-.12.41-.2.13-.08.25-.19.35-.31h.01ZM113.74,44.43c.04-.26.14-.47.28-.62.15-.15.36-.22.62-.22.13,0,.25.02.35.07.1.04.18.11.25.18.07.08.11.17.15.27.03.1.05.21.05.31h-1.7Z"/>
    <path class="cls-1" d="M120.55,46.84v-2.48c0-.12.02-.22.05-.31.04-.09.08-.17.14-.22.06-.06.13-.1.21-.14.08-.03.16-.05.26-.05.2,0,.36.06.46.18.1.12.16.3.16.54v2.48h.97v-2.48c0-.23-.03-.45-.09-.63-.06-.18-.15-.34-.26-.47-.12-.13-.26-.23-.43-.29-.17-.07-.36-.1-.58-.1-.12,0-.25.01-.37.04-.12.03-.24.07-.35.13-.11.06-.21.13-.3.23-.08.08-.15.18-.21.29-.08-.2-.19-.36-.34-.49-.16-.13-.37-.2-.61-.2-.12,0-.23.01-.32.04-.1.03-.19.06-.28.11-.08.04-.17.1-.24.16-.06.05-.13.12-.19.18l-.05-.25c-.04-.12-.13-.18-.26-.18h-.59v3.9h.97v-2.84c.1-.11.2-.2.32-.26.11-.06.24-.1.36-.1.2,0,.35.06.45.17.1.11.15.3.15.55v2.48h.97Z"/>
    <rect class="cls-1" x="124.03" y="42.94" width=".97" height="3.9"/>
    <path class="cls-1" d="M124.28,42.4c.07.03.15.05.24.05s.17-.02.24-.05c.07-.03.14-.08.2-.13.06-.05.1-.12.13-.19.03-.07.05-.15.05-.23s-.02-.17-.05-.24c-.04-.08-.08-.14-.13-.19-.06-.05-.12-.1-.2-.13-.15-.06-.33-.07-.48,0-.07.03-.14.08-.19.13s-.1.12-.13.19c-.03.08-.05.16-.05.24s.02.16.05.23c.03.07.08.14.13.19s.12.1.19.13Z"/>
    <path class="cls-1" d="M128.82,46.77c.14-.05.28-.12.41-.2.13-.08.25-.19.35-.31h.01s-.28-.36-.28-.36c-.02-.03-.05-.05-.08-.07-.08-.04-.19-.03-.3.03-.06.03-.13.07-.21.12-.08.04-.18.08-.28.12-.11.03-.24.05-.38.05-.3,0-.54-.09-.72-.27-.18-.18-.28-.46-.31-.84h2.36s.08,0,.11-.02c.03-.01.06-.03.08-.06.02-.03.03-.07.04-.12,0-.05,0-.11,0-.18,0-.28-.04-.53-.13-.75-.08-.22-.2-.41-.35-.56-.15-.15-.33-.27-.54-.35s-.43-.12-.68-.12c-.29,0-.55.05-.78.15-.23.1-.43.24-.59.41-.16.17-.29.38-.37.61-.09.23-.13.48-.13.75,0,.34.05.64.15.9.1.26.24.48.41.65.17.18.38.31.61.4.23.09.49.13.76.13.14,0,.28-.01.42-.03.15-.02.29-.06.43-.1ZM127.03,44.43c.04-.26.14-.47.28-.62.15-.15.36-.22.62-.22.13,0,.25.02.35.07.1.04.18.11.25.18.07.08.11.17.15.27.03.1.05.21.05.31h-1.7Z"/>
    <path class="cls-1" d="M132.97,46.77c.18.09.38.13.59.13.14,0,.26-.01.38-.04.12-.03.23-.07.33-.12.1-.05.2-.12.29-.19.08-.06.15-.14.23-.22l.07.33c.04.12.13.18.26.18h.59v-5.63h-.97v2.01c-.11-.1-.24-.19-.38-.25-.16-.07-.34-.11-.56-.11-.26,0-.49.05-.69.15-.2.1-.38.25-.53.43s-.26.4-.34.65c-.08.25-.12.52-.12.8,0,.32.04.6.1.85.07.25.17.46.3.63.13.17.28.3.46.39ZM133.11,44.91c0-.22.02-.42.06-.58.04-.16.1-.3.18-.4.08-.1.17-.18.28-.23.11-.05.24-.08.37-.08s.27.03.39.08c.12.05.23.14.33.26v1.71c-.12.14-.24.26-.37.33-.13.08-.29.12-.48.12-.12,0-.22-.02-.32-.06-.09-.04-.17-.11-.24-.21-.07-.1-.12-.22-.15-.38-.04-.15-.05-.34-.05-.57Z"/>
    <path class="cls-1" d="M140.23,46.26h.01s-.28-.36-.28-.36c-.02-.03-.05-.05-.08-.07-.08-.04-.19-.03-.3.03-.06.03-.13.07-.21.12-.08.04-.18.08-.28.12-.11.03-.24.05-.38.05-.3,0-.54-.09-.72-.27-.18-.18-.28-.46-.31-.84h2.36s.08,0,.11-.02c.03-.01.06-.03.08-.06.02-.03.03-.07.04-.12,0-.05,0-.11,0-.18,0-.28-.04-.53-.13-.75-.08-.22-.2-.41-.35-.56-.15-.15-.33-.27-.54-.35s-.43-.12-.68-.12c-.29,0-.55.05-.78.15-.23.1-.43.24-.59.41-.16.17-.29.38-.37.61-.09.23-.13.48-.13.75,0,.34.05.64.15.9.1.26.24.48.41.65.17.18.38.31.61.4.23.09.49.13.76.13.14,0,.28-.01.42-.03.15-.02.29-.06.43-.1.14-.05.28-.12.41-.2.13-.08.25-.19.35-.31ZM137.7,44.43c.04-.26.14-.47.28-.62.15-.15.36-.22.62-.22.13,0,.25.02.35.07.1.04.18.11.25.18.07.08.11.17.15.27.03.1.05.21.05.31h-1.7Z"/>
    <path class="cls-1" d="M143.34,43.84c.07.02.12.03.16.03.05,0,.09-.01.11-.03.03-.02.05-.06.06-.11l.12-.7h0s-.01-.02-.01-.02c-.13-.09-.29-.13-.49-.13-.23,0-.45.07-.64.21-.17.13-.33.3-.46.52l-.05-.41c-.01-.09-.04-.15-.08-.19-.04-.04-.11-.06-.21-.06h-.57v3.9h.97v-2.42c.09-.2.21-.35.34-.46.13-.1.3-.16.48-.16.11,0,.19,0,.25.03Z"/>
    <path class="cls-1" d="M100.42,49.97c-.06.05-.1.11-.12.17l-.93,3.25c-.02.08-.04.16-.06.25-.01.06-.03.12-.04.18-.04-.16-.08-.3-.12-.43l-1.06-3.25c-.02-.07-.07-.13-.13-.18-.06-.04-.14-.07-.23-.07h-.3c-.09,0-.17.03-.23.08-.06.05-.1.11-.12.17l-1.07,3.25c-.03.08-.05.17-.08.26-.02.06-.03.13-.04.19-.01-.07-.02-.13-.04-.19-.02-.1-.04-.18-.06-.26l-.93-3.25c-.02-.07-.06-.13-.13-.18-.06-.04-.14-.07-.23-.07h-.88l1.7,5.46h0s.94.01.94.01l1.2-3.73v-.04s.04-.07.05-.11c0-.03.02-.06.03-.1,0,.04.02.07.03.1.01.04.02.08.03.11l1.2,3.76h0s.94.01.94.01l1.69-5.45v-.03s-.81,0-.81,0c-.09,0-.17.02-.23.07Z"/>
    <path class="cls-1" d="M103.25,49.93c-.06-.05-.12-.1-.2-.13-.08-.03-.16-.05-.24-.05s-.16.02-.24.05c-.07.03-.14.08-.19.13-.05.05-.1.12-.13.19-.03.07-.05.16-.05.24s.02.16.05.23c.03.07.08.14.13.19.05.05.12.1.19.13.08.03.15.05.24.05s.17-.02.24-.05c.08-.03.14-.08.2-.13.06-.06.1-.12.13-.19.03-.07.05-.15.05-.23s-.02-.17-.05-.24c-.03-.07-.08-.14-.13-.19Z"/>
    <rect class="cls-1" x="102.33" y="51.47" width=".97" height="3.9"/>
    <path class="cls-1" d="M106.89,53.43c-.09-.08-.19-.15-.31-.2-.11-.05-.23-.1-.35-.14-.12-.04-.24-.08-.35-.11-.11-.03-.21-.07-.3-.11-.09-.04-.16-.09-.21-.14-.05-.05-.08-.12-.08-.19,0-.12.05-.21.15-.29.1-.07.24-.11.42-.11.12,0,.22.01.3.04.09.02.16.05.23.08.07.03.13.06.18.08.05.03.11.04.15.04s.08,0,.12-.03c.03-.02.06-.05.09-.09l.22-.35h-.01c-.15-.16-.33-.27-.55-.36-.22-.09-.47-.13-.73-.13-.24,0-.45.03-.64.1-.18.06-.34.15-.46.26-.12.11-.22.24-.28.38-.06.15-.1.3-.1.46,0,.17.03.32.08.44.06.12.13.23.22.31.09.08.19.15.31.21.11.05.23.1.35.14.13.04.24.08.35.11.11.03.21.07.3.11.09.04.16.09.21.15.05.05.08.12.08.21,0,.06-.01.11-.03.17-.02.05-.06.1-.11.14-.05.04-.11.07-.19.1-.08.03-.17.04-.28.04-.14,0-.25-.02-.34-.05-.09-.03-.17-.07-.24-.1-.06-.03-.12-.07-.18-.1-.06-.03-.11-.05-.17-.05s-.11.01-.15.04c-.04.02-.08.06-.11.1l-.22.37h.01c.08.08.16.14.26.2.1.06.21.11.33.15.12.04.24.08.37.1.13.02.26.04.39.04.25,0,.47-.03.67-.1s.36-.16.49-.27.23-.25.3-.41c.07-.16.1-.33.1-.52,0-.16-.03-.29-.08-.41-.06-.11-.13-.21-.22-.29Z"/>
    <path class="cls-1" d="M110.48,53.43c-.09-.08-.19-.15-.31-.2-.11-.05-.23-.1-.35-.14-.12-.04-.24-.08-.35-.11-.11-.03-.21-.07-.3-.11-.09-.04-.16-.09-.21-.14-.05-.05-.08-.12-.08-.19,0-.12.05-.21.15-.29.1-.07.24-.11.42-.11.12,0,.22.01.3.04.08.02.16.05.23.08s.13.06.18.08c.05.03.11.04.15.04s.09,0,.12-.03c.03-.02.06-.05.09-.09l.22-.35h-.01c-.15-.16-.33-.27-.55-.36-.22-.09-.47-.13-.73-.13-.24,0-.45.03-.64.1-.18.06-.34.15-.46.26-.12.11-.22.24-.28.38-.06.15-.1.3-.1.46,0,.17.03.32.08.44.06.12.13.23.22.31.09.08.19.15.31.21.12.05.24.1.35.14.13.04.24.08.35.11.11.03.21.07.3.11.09.04.16.09.21.15.05.05.08.12.08.21,0,.06-.01.11-.03.17-.02.05-.06.1-.11.14-.05.04-.11.07-.19.1-.08.03-.17.04-.28.04-.14,0-.25-.02-.34-.05-.09-.03-.17-.07-.24-.1-.07-.04-.13-.07-.18-.1-.05-.03-.11-.05-.17-.05s-.11.01-.15.04c-.04.02-.08.06-.1.1l-.22.37h.01c.08.08.16.14.26.2.1.06.21.11.33.15.12.04.24.08.37.1.13.02.26.04.39.04.25,0,.47-.03.67-.1.19-.07.36-.16.49-.27.13-.12.23-.26.3-.41.07-.16.1-.33.1-.52,0-.16-.03-.3-.08-.41-.06-.11-.13-.21-.22-.29Z"/>
    <path class="cls-1" d="M114.61,51.88c-.15-.15-.33-.27-.54-.35s-.43-.12-.68-.12c-.29,0-.55.05-.78.15-.23.1-.43.24-.59.41-.16.17-.28.38-.37.61-.09.23-.13.49-.13.75,0,.34.05.64.15.9.1.26.24.48.41.65.17.18.38.31.61.4.23.09.49.13.76.13.14,0,.28-.01.42-.03.14-.02.29-.06.43-.1.14-.05.28-.12.4-.2.13-.08.25-.18.35-.31h.01s-.28-.36-.28-.36c-.02-.03-.05-.05-.08-.07-.03-.02-.07-.03-.11-.03-.06,0-.12.02-.19.06-.05.03-.12.07-.21.12-.08.04-.18.08-.28.12-.11.03-.24.05-.38.05-.3,0-.54-.09-.72-.27-.18-.18-.28-.46-.31-.84h2.36s.08,0,.11-.02c.03-.01.06-.03.08-.06.02-.03.03-.07.04-.12,0-.05,0-.11,0-.18,0-.28-.04-.53-.13-.75-.08-.22-.2-.41-.35-.56ZM114.21,52.96h-1.7c.04-.26.14-.47.28-.62.15-.15.36-.22.62-.22.13,0,.25.02.35.07.1.05.18.11.25.18.07.08.11.17.15.27.03.1.05.2.05.31Z"/>
    <path class="cls-1" d="M119.17,51.83c-.11-.13-.25-.23-.42-.31-.17-.07-.36-.11-.57-.11-.13,0-.25.01-.36.04-.11.03-.22.06-.31.11-.1.05-.19.1-.28.17-.08.06-.15.12-.22.19l-.06-.27c-.04-.12-.13-.18-.26-.18h-.59v3.9h.97v-2.8c.12-.12.25-.22.39-.29.14-.07.29-.11.44-.11.21,0,.37.06.48.19.11.12.16.3.16.53v2.48h.97v-2.48c0-.22-.03-.42-.09-.6-.06-.18-.14-.34-.25-.47Z"/>
    <path class="cls-1" d="M122.96,53.43c-.09-.08-.19-.15-.31-.2-.11-.05-.23-.1-.35-.14-.12-.04-.24-.08-.35-.11-.11-.03-.21-.07-.3-.11-.09-.04-.16-.09-.21-.14-.05-.05-.08-.12-.08-.19,0-.12.05-.21.15-.29.1-.07.24-.11.42-.11.12,0,.22.01.3.04.09.02.16.05.23.08.07.03.13.06.18.08.05.03.11.04.15.04s.08,0,.12-.03c.03-.02.06-.05.09-.09l.22-.35h-.01c-.15-.16-.33-.27-.55-.36-.22-.09-.47-.13-.73-.13-.24,0-.45.03-.64.1-.18.06-.34.15-.46.26-.12.11-.22.24-.28.38-.06.15-.1.3-.1.46,0,.17.03.32.08.44.06.12.13.23.22.31.09.08.19.15.31.21.11.05.23.1.35.14.13.04.24.08.35.11.11.03.21.07.3.11.09.04.16.09.21.15.05.05.08.12.08.21,0,.06-.01.11-.03.17-.02.05-.06.1-.11.14-.05.04-.11.07-.19.1-.08.03-.17.04-.28.04-.14,0-.25-.02-.34-.05-.09-.03-.17-.07-.24-.1-.06-.03-.12-.07-.18-.1-.06-.03-.11-.05-.17-.05s-.11.01-.15.04c-.04.02-.08.06-.11.1l-.22.37h.01c.08.08.16.14.26.2.1.06.21.11.33.15.12.04.24.08.37.1.13.02.26.04.39.04.25,0,.47-.03.67-.1s.36-.16.49-.27.23-.25.3-.41c.07-.16.1-.33.1-.52,0-.16-.03-.29-.08-.41-.06-.11-.13-.21-.22-.29Z"/>
    <path class="cls-1" d="M126.84,54.33c-.06,0-.12.02-.17.06-.04.03-.09.07-.16.12-.06.04-.14.08-.23.12-.09.04-.2.05-.35.05s-.28-.03-.39-.08c-.11-.05-.21-.14-.29-.24-.08-.11-.14-.24-.19-.4-.04-.16-.06-.34-.06-.54s.02-.38.06-.53c.04-.15.1-.29.18-.39.08-.11.18-.19.3-.25.12-.06.26-.09.42-.09.13,0,.23.01.32.04.08.03.16.06.22.1.06.04.12.07.16.1.05.03.1.05.15.05.05,0,.1-.01.13-.03.03-.02.06-.05.08-.09l.26-.35h-.01c-.17-.19-.37-.32-.59-.42-.22-.09-.48-.14-.77-.14s-.58.05-.81.15c-.24.1-.44.24-.59.42-.16.18-.28.39-.36.63-.08.24-.12.51-.12.79,0,.32.05.6.14.85.09.25.22.46.38.63.16.17.35.3.56.39.21.09.44.14.68.14.14,0,.28-.01.41-.03.14-.02.28-.06.41-.1.13-.05.26-.12.38-.2.12-.08.24-.19.34-.31h.01s-.28-.36-.28-.36c-.04-.06-.1-.1-.19-.1Z"/>
    <path class="cls-1" d="M131.22,51.83c-.11-.13-.25-.23-.42-.31-.17-.07-.36-.11-.57-.11-.24,0-.46.04-.64.13-.17.08-.33.19-.47.32v-2.12h-.97v5.63h.97v-2.8c.12-.12.25-.22.39-.29.14-.07.29-.11.44-.11.21,0,.37.06.47.19.11.13.16.3.16.53v2.48h.97v-2.48c0-.22-.03-.42-.09-.6-.06-.18-.14-.34-.25-.47Z"/>
    <path class="cls-1" d="M135.42,51.83c-.12-.13-.28-.24-.46-.31-.18-.07-.38-.11-.61-.11-.63,0-1.17.21-1.62.61h-.01s.18.32.18.32c.03.05.07.09.11.13.05.03.11.05.17.05.08,0,.15-.02.22-.06.06-.04.13-.07.21-.12.07-.04.16-.08.26-.12.1-.03.22-.05.37-.05.2,0,.36.06.46.18.11.12.16.31.16.56v.21c-.43,0-.79.04-1.09.11-.3.08-.54.17-.72.29-.18.12-.31.25-.39.39-.08.15-.12.29-.12.44,0,.18.03.33.08.46.06.13.14.25.24.34.1.09.22.16.36.2.14.04.29.07.46.07.14,0,.27-.01.38-.03.12-.02.22-.06.32-.1.1-.05.2-.1.29-.17.09-.06.17-.13.26-.21l.07.24c.03.09.07.14.12.17.05.03.13.04.22.04h.44v-2.46c0-.22-.03-.43-.1-.61-.06-.19-.16-.35-.28-.48ZM134.85,53.74v.62c-.06.06-.13.12-.19.17-.07.05-.13.09-.2.13-.07.03-.14.06-.22.08-.08.02-.16.03-.26.03-.15,0-.27-.03-.37-.1-.09-.07-.14-.18-.14-.34,0-.08.02-.15.07-.22.04-.07.12-.13.23-.18.11-.05.25-.1.43-.13.18-.03.4-.05.65-.05Z"/>
    <path class="cls-1" d="M138.6,49.8c-.23,0-.43.03-.61.1-.18.07-.34.16-.46.29-.13.12-.22.28-.29.46-.07.18-.1.38-.1.6v.26h-.58v.4c0,.07.02.13.07.17.05.04.11.07.19.08l.32.05v3.16h.97v-3.16h.97v-.7h-1v-.24c0-.14.02-.26.05-.35.03-.09.07-.17.13-.22.06-.06.13-.1.21-.12.08-.02.18-.04.29-.04.08,0,.16,0,.22-.03.07-.02.11-.07.12-.15l.02-.47v-.02s-.01,0-.01,0c-.15-.05-.32-.07-.5-.07Z"/>
    <path class="cls-1" d="M141.89,54.54s-.1-.04-.16,0c-.02.01-.05.03-.08.04-.03.01-.06.03-.1.04-.04.01-.08.02-.14.02-.09,0-.17-.03-.23-.09-.06-.06-.09-.15-.09-.27v-2.07h1.02v-.7h-1.02v-1.21h-.5c-.06,0-.11.02-.15.05-.04.03-.07.07-.08.13l-.19,1.04-.62.1v.39c0,.07.02.13.06.16.04.04.09.05.14.05h.37v2.13c0,.34.09.61.28.8.18.19.45.29.79.29.19,0,.38-.03.55-.09.18-.06.34-.15.47-.26h.01s-.29-.48-.29-.48c-.02-.03-.04-.05-.06-.07Z"/>
    <path class="cls-1" d="M145.95,51.88c-.15-.15-.33-.27-.54-.35s-.43-.12-.68-.12c-.29,0-.55.05-.78.15-.23.1-.43.24-.59.41-.16.17-.28.38-.37.61-.09.23-.13.49-.13.75,0,.34.05.64.15.9.1.26.24.48.41.65.17.18.38.31.61.4.23.09.49.13.76.13.14,0,.28-.01.42-.03.14-.02.29-.06.43-.1.14-.05.28-.12.4-.2.13-.08.25-.18.35-.31h.01s-.28-.36-.28-.36c-.02-.03-.05-.05-.08-.07-.03-.02-.07-.03-.11-.03-.06,0-.12.02-.19.06-.05.03-.12.07-.21.12-.08.04-.18.08-.28.12-.11.03-.24.05-.38.05-.3,0-.54-.09-.72-.27-.18-.18-.28-.46-.31-.84h2.36s.08,0,.11-.02c.03-.01.06-.03.08-.06.02-.03.03-.07.04-.12,0-.05,0-.11,0-.18,0-.28-.04-.53-.13-.75-.08-.22-.2-.41-.35-.56ZM145.55,52.96h-1.7c.04-.26.14-.47.28-.62.15-.15.36-.22.62-.22.13,0,.25.02.35.07.1.05.18.11.25.18.07.08.11.17.15.27.03.1.05.2.05.31Z"/>
    <path class="cls-1" d="M150.51,51.83c-.11-.13-.25-.23-.42-.31-.17-.07-.36-.11-.57-.11-.13,0-.25.01-.37.04-.11.03-.22.06-.32.11-.1.05-.19.11-.28.17-.08.06-.15.12-.22.19l-.06-.27c-.04-.12-.13-.18-.26-.18h-.59v3.9h.97v-2.8c.12-.12.25-.22.39-.29.14-.07.29-.11.44-.11.21,0,.37.06.47.19.11.13.16.3.16.53v2.48h.97v-2.48c0-.22-.03-.42-.09-.6-.06-.18-.14-.34-.25-.47Z"/>
  </g>
</svg>