<?xml version="1.0" encoding="UTF-8" standalone="no"?>
<svg
   xmlns="http://www.w3.org/2000/svg"
   xmlns:svg="http://www.w3.org/2000/svg"
   viewBox="30 85 165 90"
   version="1.1"
   id="svg8">
  <defs id="defs2">
    <pattern y="0" x="0" height="6" width="6" patternUnits="userSpaceOnUse" id="EMFhbasepattern" />
  </defs>
  <g id="g4515">
    <path
       style="display:inline;fill:#295495;fill-opacity:1;stroke:#ffffff"
       d="m 47.03,137.269 c 0,0 -0.16,0.229 -0.218,0.369 -0.096,0.23 0.002,-0.002 1.634,-1.687 l 2.078,-2.145 -0.165,-1.95 -0.165,-1.949 0.458,-0.176 c 0.253,-0.097 0.883,-0.046 1.402,0.114 l 0.943,0.289 0.779,-0.609 0.778,-0.61 0.835,0.299 c 0.459,0.165 1.127,0.462 1.484,0.66 0.358,0.199 1.286,0.384 2.063,0.411 0.938,0.033 1.565,0.203 1.864,0.507 l 0.451,0.457 -0.514,0.381 -0.513,0.381 h 0.543 c 0.406,0 0.665,0.319 1.019,1.257 0.673,1.782 1.694,2.038 3.271,0.819 0.882,-0.683 2.417,-0.656 2.6,0.045 l 0.14,0.533 0.617,-0.666 c 0.348,-0.375 0.91,-0.665 1.291,-0.665 0.467,0 0.674,-0.143 0.674,-0.466 0,-0.881 1.306,-1.985 2.149,-1.816 0.97,0.194 1.555,-0.036 1.555,-0.611 0,-0.25 0.285,-0.723 0.634,-1.05 l 0.634,-0.596 2.277,0.087 c 1.252,0.047 2.307,-0.004 2.343,-0.114 0.148,-0.446 3.351,-0.773 5.218,-0.532 2.061,0.266 2.379,0.117 1.855,-0.863 -0.645,-1.204 -0.296,-1.366 3.037,-1.408 l 3.08,-0.038 0.276,0.793 c 0.309,0.886 1.238,1.089 1.813,0.396 0.181,-0.218 0.489,-0.397 0.685,-0.397 0.195,0 0.753,-0.189 1.239,-0.421 l 0.885,-0.422 0.978,0.409 c 0.567,0.237 1.082,0.682 1.225,1.057 0.136,0.357 0.373,0.727 0.528,0.822 0.437,0.271 0.343,1.466 -0.116,1.466 -0.652,0 -0.46,0.363 0.703,1.332 2.067,1.723 2.866,1.775 2.874,0.189 0.004,-0.707 0.198,-1.37 0.524,-1.786 1.2,-1.534 0.452,-3.175 -1.446,-3.175 -1.672,0 -1.797,-1.085 -0.411,-3.566 l 0.44,-0.787 -0.325,-0.668 c -0.18,-0.367 -0.475,-0.993 -0.657,-1.391 -0.183,-0.397 -0.542,-0.789 -0.798,-0.871 -0.256,-0.081 -0.727,-0.649 -1.046,-1.261 -0.319,-0.612 -0.864,-1.397 -1.211,-1.745 l -0.632,-0.631 v -1.419 c 0,-0.99 0.105,-1.419 0.345,-1.419 0.19,0 0.755,-0.423 1.255,-0.939 0.868,-0.895 2.156,-1.707 2.708,-1.707 0.142,0 0.724,-0.421 1.293,-0.935 0.569,-0.514 1.39,-1.006 1.823,-1.092 0.434,-0.087 0.853,-0.262 0.932,-0.388 0.078,-0.127 0.497,-0.231 0.931,-0.231 2.258,0 4.837,-1.997 4.546,-3.519 -0.074,-0.388 -0.035,-0.916 0.086,-1.173 0.122,-0.257 0.225,-0.988 0.229,-1.625 0.005,-0.761 0.143,-1.224 0.404,-1.35 0.219,-0.106 0.834,-0.402 1.368,-0.659 l 0.971,-0.465 0.609,0.427 c 0.335,0.234 0.78,0.427 0.989,0.427 0.208,0 0.798,0.319 1.309,0.709 0.512,0.39 0.84,0.564 0.73,0.386 -0.117,-0.19 0.088,-0.702 0.493,-1.234 l 0.694,-0.909 0.01,-1.986 0.011,-1.986 0.748,-0.533 c 1.057,-0.752 1.623,-0.668 2.652,0.393 0.493,0.51 1.103,0.926 1.355,0.926 0.983,0 1.921,1.91 1.262,2.569 -0.453,0.453 0.472,0.814 2.081,0.812 0.766,-10e-4 1.54,0.115 1.72,0.258 0.181,0.144 0.76,0.339 1.288,0.434 l 0.96,0.172 0.76,-0.891 c 0.418,-0.49 0.893,-1.118 1.055,-1.395 l 0.295,-0.504 1.088,0.579 c 0.611,0.325 1.157,0.47 1.243,0.331 0.343,-0.555 1.456,-0.254 1.768,0.48 l 0.31,0.727 0.146,-1.63 0.147,-1.63 0.722,-0.568 c 0.398,-0.312 0.924,-0.992 1.17,-1.51 l 0.447,-0.943 1.212,0.144 1.211,0.143 0.053,-0.641 c 0.029,-0.352 0.098,-0.998 0.152,-1.435 0.055,-0.436 0.12,-1.613 0.146,-2.614 l 0.064,-1.947 c 1.146,-0.637 1.844,-0.666 2.32,-0.216 1.684,-0.029 2.133,0.356 2.241,0.637 0.16,0.417 1.507,0.283 1.507,-0.15 0,-0.757 4.702,0.403 5.619,1.386 0.264,0.284 0.805,0.583 1.201,0.663 0.396,0.081 1.225,0.395 1.842,0.7 l 1.121,0.553 0.406,-0.337 c 1.154,-0.957 5.14,0.42 5.165,1.785 0.022,1.23 5.792,2.56 6.787,1.564 0.089,-0.089 0.432,-0.094 0.763,-0.011 0.693,0.174 1.173,-0.489 1.173,-1.619 v -0.699 l 0.86,0.059 c 0.473,0.032 1.194,-0.033 1.602,-0.145 0.567,-0.155 0.879,-0.077 1.323,0.329 0.319,0.292 0.838,0.608 1.152,0.704 0.873,0.264 1.282,0.863 0.901,1.322 l -0.312,0.376 0.545,-0.143 c 0.301,-0.078 0.725,0.006 0.944,0.187 0.277,0.231 0.871,0.276 1.97,0.152 l 1.572,-0.178 0.448,0.865 c 0.331,0.641 0.454,1.599 0.476,3.693 l 0.028,2.828 -0.626,0.668 c -0.399,0.426 -0.676,1.11 -0.763,1.888 l -0.138,1.22 0.565,0.527 c 0.311,0.289 0.565,0.841 0.565,1.226 0,0.385 0.218,0.946 0.483,1.247 0.266,0.3 0.641,1.048 0.833,1.661 0.193,0.614 0.63,1.379 0.973,1.7 0.342,0.321 0.622,0.724 0.622,0.894 0,0.171 0.238,0.525 0.529,0.789 0.352,0.318 0.529,0.815 0.529,1.48 0,0.551 0.13,1.083 0.289,1.181 0.176,0.108 0.232,0.61 0.143,1.272 -0.081,0.602 -0.192,1.796 -0.248,2.654 -0.073,1.132 -0.235,1.659 -0.59,1.919 -0.269,0.196 -0.374,0.357 -0.234,0.357 0.285,0 0.905,2.403 0.905,3.508 0,0.797 -1.056,1.679 -1.71,1.428 -0.214,-0.083 -0.46,-0.036 -0.546,0.103 -0.235,0.379 -2.443,0.313 -2.574,-0.078 -0.088,-0.261 -0.2,-0.257 -0.531,0.016 -0.492,0.406 -2.21,0.175 -2.514,-0.338 -0.332,-0.559 -1.304,-0.934 -2.418,-0.934 h -1.067 l -0.995,0.992 -0.995,0.992 0.92,0.085 c 0.506,0.047 1.033,0.195 1.172,0.331 0.138,0.135 0.576,0.245 0.974,0.245 0.688,0 1.817,1.115 1.817,1.795 0,0.141 0.179,0.405 0.397,0.587 0.218,0.181 0.397,0.538 0.397,0.793 0,0.256 -0.179,0.613 -0.397,0.794 -0.218,0.181 -0.397,0.623 -0.397,0.982 0,0.984 -1.75,2.689 -3.113,3.032 -1.442,0.363 -1.493,0.471 -0.809,1.72 0.659,1.204 0.509,2.442 -0.323,2.659 -0.867,0.227 -0.138,1.926 0.826,1.926 0.998,0 1.275,2.106 0.279,2.125 l -0.432,0.008 0.463,0.269 c 0.64,0.373 0.58,1.19 -0.125,1.684 -0.323,0.226 -0.442,0.412 -0.264,0.412 0.453,0 0.404,0.926 -0.07,1.32 -0.233,0.193 -0.677,0.255 -1.087,0.152 -1.304,-0.327 -2.919,0.096 -3.318,0.868 -0.416,0.808 -1.057,1.374 -1.351,1.193 -0.11,-0.069 -0.201,0.159 -0.201,0.506 0,0.778 -0.926,1.68 -1.984,1.931 -0.437,0.103 -0.943,0.305 -1.125,0.449 -0.383,0.302 -0.451,2.735 -0.083,2.963 0.29,0.179 1.075,1.693 1.075,2.072 0,0.789 -1.41,1.197 -2.022,0.584 -0.218,-0.218 -0.626,-0.397 -0.907,-0.397 -0.281,0 -0.51,-0.099 -0.51,-0.22 0,-0.121 -0.393,-0.341 -0.874,-0.488 -0.912,-0.28 -2.037,-0.039 -2.037,0.435 0,0.15 -0.536,0.273 -1.19,0.273 -0.655,0 -1.191,-0.119 -1.191,-0.264 0,-0.146 -0.238,-0.265 -0.529,-0.265 -0.291,0 -0.529,0.119 -0.529,0.265 0,0.145 -0.238,0.264 -0.529,0.264 -0.384,0 -0.53,0.177 -0.53,0.64 0,1.502 -1.756,2.125 -2.948,1.045 -0.569,-0.514 -2.855,-0.542 -3.651,-0.045 l -0.523,0.326 -1.002,-0.362 c -1.727,-0.624 -2.992,-0.417 -4.007,0.655 -0.687,0.726 -0.966,0.871 -1.242,0.642 -0.651,-0.54 -1.542,-0.193 -1.719,0.671 -0.208,1.016 -0.815,1.985 -1.243,1.985 -0.183,0 -0.333,0.119 -0.333,0.264 0,0.146 -0.226,0.265 -0.502,0.265 -0.276,0 -0.868,0.417 -1.315,0.926 -0.447,0.509 -1.044,0.926 -1.326,0.926 -0.386,0 -0.477,0.133 -0.37,0.543 0.091,0.348 -0.057,0.729 -0.41,1.059 -0.645,0.6 -1.634,0.684 -1.634,0.138 0,-0.207 -0.446,-0.52 -0.992,-0.696 -0.546,-0.176 -1.094,-0.378 -1.218,-0.45 -0.124,-0.071 -1.457,-0.109 -2.961,-0.083 l -2.736,0.047 -0.704,-0.789 c -0.387,-0.435 -0.858,-0.731 -1.046,-0.658 -0.189,0.072 -0.422,0.004 -0.518,-0.152 -0.122,-0.196 -0.331,-0.2 -0.683,-0.012 -0.401,0.215 -0.632,0.146 -1.107,-0.33 l -0.6,-0.601 -3.176,-0.177 c -3.445,-0.192 -5.218,-0.438 -5.425,-0.755 -0.073,-0.111 -1.798,-0.277 -3.834,-0.37 l -3.701,-0.169 -0.937,-0.649 -0.936,-0.649 -2.955,-0.039 -2.955,-0.039 -0.589,-0.627 c -0.324,-0.345 -0.8,-0.628 -1.057,-0.628 -0.257,0 -0.541,-0.119 -0.631,-0.264 -0.09,-0.146 -1.037,-0.265 -2.104,-0.265 -1.481,0 -1.977,-0.094 -2.093,-0.397 -0.233,-0.609 -0.822,-0.476 -1.756,0.397 -0.904,0.845 -1.547,0.993 -2.064,0.476 -0.247,-0.246 -0.317,-0.246 -0.317,0 0,0.175 -0.175,0.318 -0.389,0.318 -0.214,0 -0.835,0.25 -1.38,0.556 l -0.99,0.557 -0.614,-0.714 c -0.723,-0.841 -1.3,-0.723 -1.556,0.317 -0.343,1.39 -1.385,2.459 -2.396,2.459 -0.502,0 -1.146,0.125 -1.432,0.278 -0.285,0.153 -1.528,0.349 -2.761,0.436 l -2.241,0.158 -0.031,0.556 c -0.017,0.306 -0.012,0.707 0.012,0.891 0.024,0.184 -0.14,0.597 -0.365,0.919 -0.225,0.321 -0.41,0.866 -0.41,1.211 0,0.405 -0.187,0.677 -0.529,0.766 -0.291,0.076 -0.529,0.303 -0.529,0.504 0,0.458 -1.092,0.483 -1.573,0.036 l -0.357,-0.331 0.161,0.458 c 0.123,0.35 -0.036,0.509 -0.674,0.675 -0.517,0.134 -1,0.513 -1.266,0.997 -0.282,0.509 -0.679,0.81 -1.145,0.865 -0.398,0.047 -0.9,0.368 -1.135,0.727 l -0.422,0.644 h -1.557 -1.557 v -0.633 c 0,-0.349 -0.179,-0.702 -0.397,-0.786 -0.508,-0.195 -0.512,-1.066 -0.007,-1.486 0.215,-0.178 0.459,-0.758 0.544,-1.289 0.084,-0.531 0.266,-1.172 0.404,-1.425 0.137,-0.253 0.25,-0.857 0.25,-1.343 v -0.884 l -0.794,0.116 -0.794,0.117 v 0.665 0.665 l -1.124,-0.179 c -0.619,-0.099 -1.238,-0.293 -1.376,-0.431 -0.371,-0.371 -0.675,-0.305 -0.675,0.146 v 0.397 h -2.094 c -1.164,0 -2.134,-0.118 -2.183,-0.265 -0.059,-0.177 -0.396,-0.177 -1.013,0 -1.162,0.333 -2.568,0.342 -2.769,0.017 -0.257,-0.416 -1.772,-1.075 -2.469,-1.075 -1.089,0 -1.986,-2.239 -1.113,-2.778 0.145,-0.09 0.264,-0.501 0.264,-0.912 v -0.749 l -0.926,-0.174 -0.926,-0.174 v -1.443 c 0,-0.794 0.119,-1.443 0.265,-1.443 0.145,0 0.264,-0.636 0.264,-1.414 0,-1.062 0.128,-1.53 0.512,-1.877 0.281,-0.255 0.451,-0.618 0.378,-0.808 -0.072,-0.19 -0.005,-0.424 0.151,-0.52 0.155,-0.096 0.282,-0.367 0.282,-0.601 0,-0.235 0.197,-0.644 0.437,-0.909 0.711,-0.786 0.598,-2.056 -0.259,-2.913 -0.857,-0.857 -0.972,-0.899 -0.972,-0.351 0,0.218 -0.149,0.397 -0.333,0.397 -0.183,0 -0.482,0.238 -0.663,0.529 -0.182,0.291 -0.568,0.529 -0.858,0.529 -0.341,0 -0.527,0.178 -0.527,0.502 0,1.792 -3.597,2.384 -4.883,0.975 l 0.782,-1.566 0.24,-0.55 c 0.131,-0.303 0.213,-0.71 0.182,-0.903 v 0 c -0.032,-0.194 0.139,-0.653 0.38,-1.02 0.241,-0.368 0.471,-1.162 0.511,-1.765 0.1,-1.485 0.061,-1.378 0.8,-2.176 0.456,-0.492 0.612,-0.893 0.508,-1.308 -0.083,-0.328 -0.021,-0.677 0.136,-0.774 0.472,-0.292 0.323,-1.318 -0.243,-1.672 -0.291,-0.182 -0.529,-0.551 -0.529,-0.822 0,-0.27 0.603,-0.901 1.085,-0.997 1.056,-0.21 1.942,-0.348 1.942,-0.348 z"
       id="path3792-4" />

    <path
       d="m 37.062406,145.92799 c -2.4308,-1.31564 -4.151802,-0.45736 -4.437591,-2.83274 -0.16176,-1.34402 -1.671459,-4.07369 -0.192269,-7.6008 4.084852,-9.73636 3.984096,-7.76235 7.79915,-5.69751 3.815055,2.06485 6.800257,9.25336 4.735408,13.06841 -1.252809,2.31471 -2.019413,8.79843 -3.859866,7.18829 -1.358792,-1.18912 -2.54449,-3.31361 -4.044832,-4.12565 z"
       style="fill:none;stroke:#295495;stroke-width:2;stroke-dasharray:2;"
       id="path9" />

    <text
       x="46.709999"
       y="141.965"
       id="text4538"
       style="font-weight:bold;font-size:53px;font-family:'Open Sans';fill:#ffffff;stroke:#295495;stroke-width:1.2px;">WBÖ</text>
  </g>
</svg>
