<svg xmlns="http://www.w3.org/2000/svg" width="1984.09229" height="1471.16406" viewBox="0 0 1984.09229 1471.16406">
  <defs>
    <style>
      .cls-1 {
        fill: #adadad;
      }

      .cls-2, .cls-4 {
        fill: #0065a6;
      }

      .cls-3 {
        isolation: isolate;
      }

      .cls-4 {
        fill-rule: evenodd;
      }
    </style>
  </defs>
  <title>diö-logo-type-dt</title>
  <g id="Variation_Kontakt_Perzeption" data-name="Variation – Kontakt – Perzeption">
    <g id="Variation_Kontakt_Perzeption-2" data-name="Variation – Kontakt – Perzeption">
      <path class="cls-1" d="M0,1284.68652H19.3667l8.78564,54.01074,1.51172,9.75977,3.11768,21.22461q.75513,5.40088,1.36963,9.85449.61377,4.45459,1.08643,8.05469l.94482,7.20117q.28345-2.17822.47217-3.88477.18823-1.70654.37793-2.84277l2.55078-16.96094,3.30664-22.26758q.47168-3.03223.89746-5.59082.42554-2.55762.80322-4.54785l9.44678-54.01074H72.36523l-28.625,146.30176H28.15234Z"/>
      <path class="cls-1" d="M137.92871,1332.917v98.07129H119.88477v-12.60254q-3.87524,8.05518-7.74658,11.08691-3.87524,3.03076-10.20312,3.03125-12.18677,0-17.855-12.50684-5.66821-12.5083-5.66846-39.22851,0-25.48828,5.66846-37.47559,5.66821-11.98682,17.855-11.98731,11.146,0,17.94971,12.69727V1332.917Zm-40.81152,48.60938q0,19.33008,2.55029,27.00488,2.644,7.67578,9.2583,7.67481,6.04468,0,8.78613-7.959,2.73853-8.52832,2.73975-26.24707,0-17.8125-2.73975-26.3418-2.74146-7.96-8.78613-7.96-6.42554,0-9.16357,7.58106Q97.116,1362.293,97.11719,1381.52637Z"/>
      <path class="cls-1" d="M158.4292,1332.917h18.04395v12.22363q4.62744-7.76953,9.16357-10.89746,4.53516-3.126,11.998-3.60059v18.95117a22.16656,22.16656,0,0,0-3.21191-.28418q-9.73169,0-13.8877,5.02246-4.06274,4.92774-4.062,17.24512v59.41113H158.4292Z"/>
      <path class="cls-1" d="M218.60742,1291.22461a11.61162,11.61162,0,0,1,8.50244,3.60059,12.27667,12.27667,0,0,1-17.38281,17.34082,11.96511,11.96511,0,0,1-3.49561-8.8125,11.67337,11.67337,0,0,1,3.58984-8.52832A12.56273,12.56273,0,0,1,218.60742,1291.22461ZM210.105,1332.917h18.13818v98.07129H210.105Z"/>
      <path class="cls-1" d="M304.3877,1332.917v98.07129H286.34375v-12.60254q-3.87524,8.05518-7.74658,11.08691-3.87524,3.03076-10.20312,3.03125-12.18677,0-17.855-12.50684-5.66821-12.5083-5.66846-39.22851,0-25.48828,5.66846-37.47559,5.66821-11.98682,17.855-11.98731,11.146,0,17.94971,12.69727V1332.917Zm-40.81152,48.60938q0,19.33008,2.55029,27.00488,2.644,7.67578,9.2583,7.67481,6.04468,0,8.78613-7.959,2.73853-8.52832,2.73975-26.24707,0-17.8125-2.73975-26.3418-2.74146-7.96-8.78613-7.96-6.42554,0-9.16357,7.58106Q263.575,1362.293,263.57617,1381.52637Z"/>
      <path class="cls-1" d="M327.061,1305.43848H345.105V1332.917h9.8252v14.40234H345.105v83.66894H327.061v-83.66894h-9.91992V1332.917H327.061Z"/>
      <path class="cls-1" d="M376.375,1291.22461a11.61162,11.61162,0,0,1,8.50244,3.60059,12.27667,12.27667,0,0,1-17.38281,17.34082,11.96511,11.96511,0,0,1-3.49561-8.8125,11.67337,11.67337,0,0,1,3.58984-8.52832A12.56273,12.56273,0,0,1,376.375,1291.22461Zm-8.50244,41.69238h18.13818v98.07129H367.87256Z"/>
      <path class="cls-1" d="M464.04492,1382.75781q0,49.74609-30.70361,49.74609-30.70386,0-30.70312-50.50391,0-50.69238,30.60889-50.69434a29.344,29.344,0,0,1,13.74561,3.03223,24.20309,24.20309,0,0,1,9.58887,9.38086,49.36232,49.36232,0,0,1,5.62109,16.01367A124.73,124.73,0,0,1,464.04492,1382.75781Zm-18.70557-.47363q0-19.33008-2.55078-26.91016-2.551-7.67578-9.06934-7.67578-6.42554,0-9.16357,7.58106-2.551,7.582-2.55078,26.43652,0,18.85693,2.55078,26.3418,2.73853,7.582,9.16357,7.58008,6.42334,0,8.9751-7.48535Q445.33765,1401.1416,445.33936,1382.28418Z"/>
      <path class="cls-1" d="M480.86084,1332.917h18.04395v11.27539q7.74536-12.88477,20.02783-12.88672,11.90332,0,17.00488,9.38086,2.83447,5.30859,2.83447,20.5625v69.73926H520.72754l-.09424-65.57031q0-9.94922-2.36182-14.11816-2.36279-4.16895-8.12451-4.16992a11.41688,11.41688,0,0,0-5.24316,1.08984,8.22912,8.22912,0,0,0-3.44824,3.50586,19.553,19.553,0,0,0-1.937,6.30176,62.62449,62.62449,0,0,0-.61377,9.57031v63.39063H480.86084Z"/>
      <path class="cls-1" d="M601.40625,1373.47168h58.19434v14.498H601.40625Z"/>
      <path class="cls-1" d="M723.2749,1284.68652h19.6499v70.877l27.397-70.877h19.83887l-28.71924,70.877,30.98682,75.4248H770.32178l-27.397-75.4248v75.4248H723.2749Z"/>
      <path class="cls-1" d="M861.39209,1382.75781q0,49.74609-30.70361,49.74609-30.70386,0-30.70312-50.50391,0-50.69238,30.60889-50.69434a29.344,29.344,0,0,1,13.74561,3.03223,24.20309,24.20309,0,0,1,9.58887,9.38086,49.36232,49.36232,0,0,1,5.62109,16.01367A124.73,124.73,0,0,1,861.39209,1382.75781Zm-18.70557-.47363q0-19.33008-2.55078-26.91016-2.551-7.67578-9.06934-7.67578-6.42554,0-9.16357,7.58106-2.551,7.582-2.55078,26.43652,0,18.85693,2.55078,26.3418,2.73853,7.582,9.16357,7.58008,6.42334,0,8.9751-7.48535Q842.68481,1401.1416,842.68652,1382.28418Z"/>
      <path class="cls-1" d="M878.208,1332.917H896.252v11.27539q7.74536-12.88477,20.02783-12.88672,11.90332,0,17.00488,9.38086,2.83447,5.30859,2.83447,20.5625v69.73926H918.07471l-.09424-65.57031q0-9.94922-2.36182-14.11816-2.36279-4.16895-8.12451-4.16992a11.41688,11.41688,0,0,0-5.24316,1.08984,8.22912,8.22912,0,0,0-3.44824,3.50586,19.553,19.553,0,0,0-1.937,6.30176,62.62449,62.62449,0,0,0-.61377,9.57031v63.39063H878.208Z"/>
      <path class="cls-1" d="M958.69775,1305.43848H976.7417V1332.917h9.8252v14.40234h-9.8252v83.66894H958.69775v-83.66894h-9.91992V1332.917h9.91992Z"/>
      <path class="cls-1" d="M1055.34229,1332.917v98.07129h-18.04394v-12.60254q-3.876,8.05518-7.74609,11.08691-3.876,3.03076-10.20312,3.03125-12.1875,0-17.85547-12.50684-5.66894-12.5083-5.66846-39.22851,0-25.48828,5.66846-37.47559,5.66895-11.98682,17.85547-11.98731,11.14453,0,17.94922,12.69727V1332.917Zm-40.81152,48.60938q0,19.33008,2.55078,27.00488,2.64258,7.67578,9.25781,7.67481,6.04395,0,8.78613-7.959,2.73779-8.52832,2.73926-26.24707,0-17.8125-2.73926-26.3418-2.74072-7.96-8.78613-7.96-6.4248,0-9.16406,7.58106Q1014.52979,1362.293,1014.53076,1381.52637Z"/>
      <path class="cls-1" d="M1075.84326,1270h18.043v106.59863l22.957-43.68164h20.40625l-24.94141,43.68164,28.248,54.38965H1119.394l-25.50781-52.11523v52.11523h-18.043Z"/>
      <path class="cls-1" d="M1153.687,1305.43848H1171.731V1332.917h9.8252v14.40234h-9.8252v83.66894H1153.687v-83.66894h-9.91992V1332.917h9.91992Z"/>
      <path class="cls-1" d="M1236.728,1373.47168h58.19434v14.498H1236.728Z"/>
      <path class="cls-1" d="M1358.59619,1284.68652H1384.481q18.70605,0,27.208,9.47559,8.50342,9.57129,8.50293,30.32129,0,29.187-17.09961,37.71289-8.59717,3.88623-24.8457,3.88477v64.90723h-19.65039Zm19.65039,64.52832q12.186,0,16.81543-4.92773,4.72266-5.02,4.72363-17.81348,0-13.07666-4.53418-19.14062-4.53516-6.063-14.26562-6.06445h-2.73926Z"/>
      <path class="cls-1" d="M1472.05615,1397.91895h16.81641q-1.9834,34.58643-28.3418,34.585a28.73384,28.73384,0,0,1-13.46191-2.93652,23.5723,23.5723,0,0,1-9.30566-9.09668,47.01922,47.01922,0,0,1-5.43164-15.63477,126.02486,126.02486,0,0,1-1.748-22.55176q0-25.96143,7.22754-38.4707,7.22607-12.50684,22.3418-12.50781,29.38037,0,29.38086,51.92578v2.27441h-41.28418q0,31.46045,12.4707,31.459Q1472.05664,1416.96484,1472.05615,1397.91895Zm-.94434-25.48926q-1.13379-15.44385-3.49512-20.27734-2.458-5.40088-7.93555-5.40137-5.5752,0-7.93555,5.40137-2.36279,4.83252-3.49609,20.27734Z"/>
      <path class="cls-1" d="M1505.59424,1332.917h18.04395v12.22363q4.62744-7.76953,9.16406-10.89746,4.53369-3.126,11.99707-3.60059v18.95117a22.14391,22.14391,0,0,0-3.21191-.28418q-9.731,0-13.88672,5.02246-4.06348,4.92774-4.0625,17.24512v59.41113h-18.04395Z"/>
      <path class="cls-1" d="M1552.64111,1332.917h56.77734l-32.6875,81.67871h30.98633v16.39258h-57.72168l33.82031-82.05762h-31.17481Z"/>
      <path class="cls-1" d="M1660.33838,1397.91895h16.81641q-1.9834,34.58643-28.3418,34.585a28.73385,28.73385,0,0,1-13.46191-2.93652,23.5723,23.5723,0,0,1-9.30566-9.09668,47.01922,47.01922,0,0,1-5.43164-15.63477,126.02486,126.02486,0,0,1-1.748-22.55176q0-25.96143,7.22754-38.4707,7.22607-12.50684,22.3418-12.50781,29.38037,0,29.38086,51.92578v2.27441h-41.28418q0,31.46045,12.4707,31.459Q1660.33887,1416.96484,1660.33838,1397.91895Zm-.94434-25.48926q-1.13379-15.44385-3.49512-20.27734-2.458-5.40088-7.93555-5.40137-5.5752,0-7.93555,5.40137-2.36279,4.83252-3.49609,20.27734Z"/>
      <path class="cls-1" d="M1693.87647,1471.16406V1332.917h18.04394v12.69727q3.77783-8.05225,7.74707-11.18164,3.9668-3.126,10.3916-3.127,12.09082,0,17.71289,12.55566,5.62061,12.55664,5.62109,39.27539,0,26.15332-5.7627,37.61816-5.66748,11.74951-18.23242,11.749a16.75078,16.75078,0,0,1-9.91992-2.74707,17.78492,17.78492,0,0,1-3.7793-3.791,44.46279,44.46279,0,0,1-3.77832-5.96875v51.167Zm40.81152-88.69043q0-19.99219-2.64551-27.09961-2.55029-7.67578-9.16309-7.67578-6.23584,0-8.88086,7.96-2.64551,7.39014-2.64453,26.3418,0,18.95215,2.64453,26.3418,2.73926,7.86621,8.88086,7.86426,6.42334,0,9.16309-7.58008Q1734.68652,1401.61523,1734.688,1382.47363Z"/>
      <path class="cls-1" d="M1772.38135,1305.43848h18.04395V1332.917h9.82519v14.40234h-9.82519v83.66894h-18.04395v-83.66894h-9.91992V1332.917h9.91992Z"/>
      <path class="cls-1" d="M1821.6958,1291.22461a11.61191,11.61191,0,0,1,8.50293,3.60059,12.27667,12.27667,0,0,1-17.38281,17.34082,11.96472,11.96472,0,0,1-3.49512-8.8125,11.67148,11.67148,0,0,1,3.58984-8.52832A12.55962,12.55962,0,0,1,1821.6958,1291.22461Zm-8.502,41.69238h18.13867v98.07129h-18.13867Z"/>
      <path class="cls-1" d="M1909.36572,1382.75781q0,49.74609-30.70312,49.74609T1847.95947,1382q0-50.69238,30.6084-50.69434a29.34327,29.34327,0,0,1,13.74609,3.03223,24.2,24.2,0,0,1,9.58887,9.38086,49.36232,49.36232,0,0,1,5.62109,16.01367A124.77649,124.77649,0,0,1,1909.36572,1382.75781Zm-18.70508-.47363q0-19.33008-2.55078-26.91016-2.55029-7.67578-9.06934-7.67578-6.4248,0-9.16406,7.58106-2.55029,7.582-2.55078,26.43652,0,18.85693,2.55078,26.3418,2.73926,7.582,9.16406,7.58008,6.42334,0,8.97461-7.48535Q1890.65918,1401.1416,1890.66065,1382.28418Z"/>
      <path class="cls-1" d="M1926.18115,1332.917h18.04395v11.27539q7.74463-12.88477,20.02832-12.88672,11.90332,0,17.00488,9.38086,2.833,5.30859,2.834,20.5625v69.73926h-18.04394l-.09473-65.57031q0-9.94922-2.3623-14.11816-2.36133-4.16895-8.124-4.16992a11.41828,11.41828,0,0,0-5.24316,1.08984,8.22642,8.22642,0,0,0-3.44824,3.50586,19.52942,19.52942,0,0,0-1.93652,6.30176,62.61733,62.61733,0,0,0-.61426,9.57031v63.39063h-18.04395Z"/>
    </g>
  </g>
  <g id="Deutsch_in_Österreich" data-name="Deutsch in Österreich">
    <g>
      <path class="cls-2" d="M80.01758,959.60156h35.25781q16.114,0,27.13232,3.5918a42.975,42.975,0,0,1,18.17969,12.2959q11.98242,13.2627,17.07813,34.53809,5.094,20.58691,5.0957,58.99121,0,35.22949-5.64648,57.47168-5.51,21.27686-18.18018,32.4668-15.5647,13.95557-55.7793,13.95313H80.01758Zm28.647,188.165q26.16577,0,34.98242-15.8877,9.09009-15.88623,9.08984-61.75488,0-49.32129-8.67676-67.833-8.67627-18.5127-31.81445-18.5127h-3.58105Z"/>
      <path class="cls-2" d="M264.84668,1124.69434h24.51514q-2.89233,50.42871-41.31787,50.42676-11.43384,0-19.626-4.2832a34.355,34.355,0,0,1-13.56641-13.2627q-5.37085-8.97949-7.91895-22.79492a183.73994,183.73994,0,0,1-2.54834-32.88086q0-37.85156,10.53613-56.09082,10.53662-18.23584,32.57227-18.23633,42.832,0,42.833,75.709v3.31543H230.13916q0,45.86865,18.18018,45.86719Q264.84644,1152.46387,264.84668,1124.69434Zm-1.37744-37.16309q-1.65308-22.51611-5.0957-29.56445-3.58374-7.875-11.56934-7.875-8.12769,0-11.56885,7.875-3.44458,7.0459-5.09619,29.56445Z"/>
      <path class="cls-2" d="M313.73926,1029.9209h26.30566v95.60254q.27466,13.26269,3.92529,18.92676,3.64746,5.66748,12.189,5.665,8.95093,0,12.53271-4.97363,3.58008-5.24854,3.58105-18.23633V1029.9209h26.30566v85.51758q0,29.97949-4.40723,40.06445-9.22852,19.61865-38.2876,19.61816-22.864,0-32.50391-11.60547-9.6416-11.74072-9.64062-39.09766Z"/>
      <path class="cls-2" d="M431.49561,989.85645h26.30615v40.06445H472.125v21H457.80176v121.98926H431.49561V1050.9209H417.03467v-21h14.46094Z"/>
      <path class="cls-2" d="M546.08447,1032.82227v24.72949q-9.64233-7.18213-20.24609-7.18359a17.13052,17.13052,0,0,0-11.91309,4.62793,15.70508,15.70508,0,0,0-4.88965,11.39746q0,10.22607,18.45557,24.31543a134.23122,134.23122,0,0,1,12.39551,10.77539,49.30641,49.30641,0,0,1,7.57471,9.39453q5.37158,8.7041,5.37158,21.9668,0,19.2041-11.15625,30.80859-11.02,11.46826-29.61084,11.4668-11.43384,0-23.13818-6.76953V1142.793q11.43018,8.56787,21.623,8.56543,18.041,0,18.042-17.82227a19.8258,19.8258,0,0,0-3.30518-11.4668,31.367,31.367,0,0,0-4.82031-5.457q-3.30542-3.1084-8.126-6.97656-16.66626-12.98437-22.5874-21.82812-5.78394-9.11865-5.78418-21.9668,0-17.26758,10.605-28.32129,10.74243-10.91162,27.9585-10.91406A48.71764,48.71764,0,0,1,546.08447,1032.82227Z"/>
      <path class="cls-2" d="M632.16309,1032.68457V1059.624q-5.51-6.76758-13.22168-6.76953-21.76318,0-21.76074,47.249,0,50.14893,21.623,50.14941,6.05859,0,13.35938-5.3877v24.72949a45.01081,45.01081,0,0,1-21.21,5.52637q-42.42187,0-42.41992-72.39258,0-38.5459,10.46729-56.85059,10.46558-18.30469,32.50342-18.30566A45.10424,45.10424,0,0,1,632.16309,1032.68457Z"/>
      <path class="cls-2" d="M654.4751,938.1875h26.30566v108.17383q11.29175-18.78662,29.19824-18.78906,17.35327,0,24.79053,13.67773,4.13232,7.73877,4.13184,29.97949v101.68066H712.5957l-.1377-95.60254q0-14.50635-3.44336-20.585-3.44385-6.07764-11.84424-6.07812a16.64821,16.64821,0,0,0-7.644,1.58887,11.9839,11.9839,0,0,0-5.02686,5.11133,28.48462,28.48462,0,0,0-2.82324,9.1875,91.21953,91.21953,0,0,0-.89551,13.95313v92.4248H654.4751Z"/>
      <path class="cls-2" d="M839.44189,969.13379a16.92319,16.92319,0,0,1,12.395,5.25A17.89814,17.89814,0,0,1,826.49561,999.666a17.44511,17.44511,0,0,1-5.09619-12.84863,17.01737,17.01737,0,0,1,5.23389-12.43359A18.31006,18.31006,0,0,1,839.44189,969.13379Zm-12.39551,60.78711h26.44336v142.98926H827.04639Z"/>
      <path class="cls-2" d="M883.10107,1029.9209h26.30566v16.44043q11.29175-18.78662,29.19824-18.78906,17.35327,0,24.79053,13.67773,4.13232,7.73877,4.13184,29.97949v101.68066H941.22168l-.1377-95.60254q0-14.50635-3.44336-20.585-3.44385-6.07764-11.84424-6.07812a16.64821,16.64821,0,0,0-7.644,1.58887,11.9839,11.9839,0,0,0-5.02686,5.11133,28.48462,28.48462,0,0,0-2.82324,9.1875,91.21953,91.21953,0,0,0-.89551,13.95313v92.4248H883.10107Z"/>
      <path class="cls-2" d="M1163.6499,1071.50586q0,56.50488-12.5332,80.2666-12.5332,23.76416-42.00586,23.76269-30.99023,0-43.66016-25.55859-12.5332-25.00342-12.5332-88.833,0-56.9165,12.39551-80.543,12.53174-23.75977,42.4209-23.7627,26.71582,0,39.66406,18.375,8.53711,12.29736,12.39648,34.95215Q1163.647,1031.1665,1163.6499,1071.50586ZM1082.39111,906.5498a14.61617,14.61617,0,0,1,10.87988,4.69727,15.07363,15.07363,0,0,1,4.5459,11.05273,15.305,15.305,0,0,1-4.68262,11.19043,14.98325,14.98325,0,0,1-11.01855,4.55859,15.43318,15.43318,0,0,1-11.15527-4.55859,15.69981,15.69981,0,0,1-4.54492-11.3291,14.852,14.852,0,0,1,4.68164-11.05176A15.60469,15.60469,0,0,1,1082.39111,906.5498Zm51.23535,167.99512q0-55.39893-4.959-73.498-4.957-18.23584-20.24609-18.23633-15.28711,0-20.38281,16.7168-4.96,16.85742-4.959,67.69531,0,46.834,5.23438,64.93262,5.37012,17.13135,20.10742,17.13086,14.46094,0,19.832-16.02637Q1133.62646,1117.375,1133.62647,1074.54492Zm1.51367-167.99512a14.61674,14.61674,0,0,1,10.88086,4.69727,15.08033,15.08033,0,0,1,4.54492,11.05273,15.30216,15.30216,0,0,1-4.68359,11.19043,14.98107,14.98107,0,0,1-11.01758,4.55859,15.43861,15.43861,0,0,1-11.15625-4.55859,15.70379,15.70379,0,0,1-4.54492-11.3291,14.85017,14.85017,0,0,1,4.68359-11.05176A15.604,15.604,0,0,1,1135.14014,906.5498Z"/>
      <path class="cls-2" d="M1245.59717,1032.82227v24.72949q-9.6416-7.18213-20.24512-7.18359a17.133,17.133,0,0,0-11.91406,4.62793,15.69916,15.69916,0,0,0-4.88867,11.39746q0,10.22607,18.45508,24.31543a134.23131,134.23131,0,0,1,12.39551,10.77539,49.33,49.33,0,0,1,7.5752,9.39453q5.37012,8.7041,5.37109,21.9668,0,19.2041-11.15625,30.80859-11.02,11.46826-29.61133,11.4668-11.4331,0-23.13769-6.76953V1142.793q11.43018,8.56787,21.623,8.56543,18.041,0,18.042-17.82227a19.82246,19.82246,0,0,0-3.30566-11.4668,31.30494,31.30494,0,0,0-4.82031-5.457q-3.30469-3.1084-8.126-6.97656-16.66553-12.98437-22.58691-21.82812-5.78467-9.11865-5.78418-21.9668,0-17.26758,10.60449-28.32129,10.74316-10.91162,27.959-10.91406A48.71441,48.71441,0,0,1,1245.59717,1032.82227Z"/>
      <path class="cls-2" d="M1276.58545,989.85645h26.30566v40.06445h14.32422v21h-14.32422v121.98926h-26.30566V1050.9209h-14.46094v-21h14.46094Z"/>
      <path class="cls-2" d="M1391.17432,1124.69434h24.51563q-2.8916,50.42871-41.31836,50.42676-11.4331,0-19.626-4.2832a34.34652,34.34652,0,0,1-13.56543-13.2627q-5.37158-8.97949-7.91992-22.79492a183.74415,183.74415,0,0,1-2.54785-32.88086q0-37.85156,10.53613-56.09082,10.53662-18.23584,32.57227-18.23633,42.832,0,42.833,75.709v3.31543h-60.18652q0,45.86865,18.17969,45.86719Q1391.1748,1152.46387,1391.17432,1124.69434Zm-1.377-37.16309q-1.65234-22.51611-5.0957-29.56445-3.583-7.875-11.56934-7.875-8.12842,0-11.56934,7.875-3.44385,7.0459-5.0957,29.56445Z"/>
      <path class="cls-2" d="M1440.0669,1029.9209h26.30664v17.82227q6.74561-11.32617,13.35938-15.88769,6.61084-4.55859,17.49121-5.25v27.63086a32.28713,32.28713,0,0,0-4.68262-.41406q-14.187,0-20.24609,7.32129-5.92383,7.18506-5.92187,25.14453v86.62207H1440.0669Z"/>
      <path class="cls-2" d="M1515.40283,1029.9209h26.30664v17.82227q6.74561-11.32617,13.35938-15.88769,6.61084-4.55859,17.49121-5.25v27.63086a32.28714,32.28714,0,0,0-4.68262-.41406q-14.187,0-20.24609,7.32129-5.92383,7.18506-5.92187,25.14453v86.62207h-26.30664Z"/>
      <path class="cls-2" d="M1645.83057,1124.69434h24.51563q-2.8916,50.42871-41.31836,50.42676-11.4331,0-19.626-4.2832a34.34652,34.34652,0,0,1-13.56543-13.2627q-5.37158-8.97949-7.91992-22.79492a183.74415,183.74415,0,0,1-2.54785-32.88086q0-37.85156,10.53613-56.09082,10.53662-18.23584,32.57227-18.23633,42.832,0,42.833,75.709v3.31543h-60.18652q0,45.86865,18.17969,45.86719Q1645.83105,1152.46387,1645.83057,1124.69434Zm-1.377-37.16309q-1.65234-22.51611-5.0957-29.56445-3.583-7.875-11.56934-7.875-8.12842,0-11.56934,7.875-3.44385,7.0459-5.0957,29.56445Z"/>
      <path class="cls-2" d="M1707.11865,969.13379a16.92348,16.92348,0,0,1,12.39551,5.25,17.89831,17.89831,0,0,1-25.3418,25.28223,17.44662,17.44662,0,0,1-5.0957-12.84863,17.01878,17.01878,0,0,1,5.2334-12.43359A18.31176,18.31176,0,0,1,1707.11865,969.13379Zm-12.39551,60.78711h26.44434v142.98926h-26.44434Z"/>
      <path class="cls-2" d="M1809.03662,1032.68457V1059.624q-5.51074-6.76758-13.22168-6.76953-21.76318,0-21.76074,47.249,0,50.14893,21.623,50.14941,6.05859,0,13.35938-5.3877v24.72949a45.0079,45.0079,0,0,1-21.21,5.52637q-42.42187,0-42.41992-72.39258,0-38.5459,10.46777-56.85059,10.46484-18.30469,32.50293-18.30566A45.10275,45.10275,0,0,1,1809.03662,1032.68457Z"/>
      <path class="cls-2" d="M1831.34815,938.1875h26.30664v108.17383q11.291-18.78662,29.19727-18.78906,17.354,0,24.791,13.67773,4.13232,7.73877,4.13184,29.97949v101.68066h-26.30566l-.13769-95.60254q0-14.50635-3.44336-20.585-3.44385-6.07764-11.84473-6.07812a16.6503,16.6503,0,0,0-7.64355,1.58887,11.99028,11.99028,0,0,0-5.02734,5.11133,28.533,28.533,0,0,0-2.82324,9.1875,91.35905,91.35905,0,0,0-.89453,13.95313v92.4248h-26.30664Z"/>
    </g>
  </g>
  <g id="Ellipse_4_copy" data-name="Ellipse 4 copy" class="cls-3">
    <g>
      <g id="Ellipse_3_copy-2" data-name="Ellipse 3 copy">
        <path class="cls-4" d="M754.6344,477.38525a242.16946,242.16946,0,0,1,97.17926-194.16681,241.64267,241.64267,0,0,0-80.1-39.4787,324.52948,324.52948,0,0,0,.45221,467.16864A241.65486,241.65486,0,0,0,851.81366,671.552,242.16969,242.16969,0,0,1,754.6344,477.38525ZM997.14856,152.57672a322.994,322.994,0,0,0-145.36047,34.33844,325.2622,325.2622,0,0,1,80.08533,56.83539,242.73531,242.73531,0,0,1,65.301-8.90381c133.95117,0,242.54016,108.5882,242.54016,242.53851s-108.589,242.53845-242.54016,242.53845a242.71408,242.71408,0,0,1-65.75293-9.02618,325.25828,325.25828,0,0,1-79.63336,56.39417,322.9917,322.9917,0,0,0,145.36047,34.33862c179.18567,0,324.444-145.29633,324.444-324.52747C1321.59253,297.87231,1176.33423,152.57672,997.14856,152.57672Z"/>
      </g>
      <g id="Ellipse_6_copy-2" data-name="Ellipse 6 copy">
        <path class="cls-4" d="M997.72375,642.337c-.18353.00061-.36572.007-.54938.007C997.46356,642.344,997.64349,642.34186,997.72375,642.337Zm-.54938-329.91058c-3.62128,0-7.21393.12885-10.77649.36572,69.77624,120.11145,50.52228,240.95282.78693,328.79822,6.6767.54187,11.10492.71259,10.53894.74664a164.95574,164.95574,0,0,0-.54938-329.91058Z"/>
      </g>
      <g id="Ellipse_4-2" data-name="Ellipse 4">
        <ellipse class="cls-2" cx="892.52724" cy="52.85634" rx="52.89847" ry="52.85635"/>
      </g>
      <g id="Ellipse_4_copy-2" data-name="Ellipse 4 copy">
        <ellipse class="cls-2" cx="1104.12128" cy="52.85634" rx="52.89868" ry="52.85635"/>
      </g>
    </g>
  </g>
</svg>
